<svg width="270" height="80" viewBox="0 0 270 80" fill="none" xmlns="http://www.w3.org/2000/svg">
<path d="M9.76562 77.9531V19.3594C9.76562 7.96615 15.4622 2.26953 26.8555 2.26953H41.9922C53.3854 2.26953 59.082 7.96615 59.082 19.3594V73.5586L49.8047 77.9531H49.3164V43.5781H19.5312V73.5586L10.2539 77.9531H9.76562ZM19.5312 34.6914H49.3164V19.3594C49.3164 13.8255 46.875 11.0586 41.9922 11.0586H26.8555C21.9727 11.0586 19.5312 13.8255 19.5312 19.3594V34.6914ZM76.1719 77.9531V36.9375C76.1719 27.1719 81.0547 22.2891 90.8203 22.2891H102.051C111.816 22.2891 116.699 27.1719 116.699 36.9375V73.5586L107.422 77.9531H106.934V36.9375C106.934 33.0312 105.306 31.0781 102.051 31.0781H90.8203C87.5651 31.0781 85.9375 33.0312 85.9375 36.9375V73.5586L76.6602 77.9531H76.1719ZM143.555 67.2109H153.809C157.064 67.2109 158.691 65.2578 158.691 61.3516V54.6621C158.691 50.7559 157.064 48.8027 153.809 48.8027H143.555C140.299 48.8027 138.672 50.7559 138.672 54.6621V61.3516C138.672 65.2578 140.299 67.2109 143.555 67.2109ZM143.555 76C133.789 76 128.906 71.1172 128.906 61.3516V54.6621C128.906 44.8965 133.789 40.0137 143.555 40.0137H153.809C155.501 40.0137 157.129 40.502 158.691 41.4785V36.9375C158.691 33.0312 157.064 31.0781 153.809 31.0781H136.328V30.5898L140.234 22.2891H153.809C163.574 22.2891 168.457 27.1719 168.457 36.9375V73.5586L159.18 77.9531H158.691V74.5352C157.454 75.5117 155.827 76 153.809 76H143.555ZM183.105 77.9531V36.9375C183.105 27.1719 187.988 22.2891 197.754 22.2891H208.984C213.477 22.2891 216.732 23.4935 218.75 25.9023C220.898 23.4935 224.154 22.2891 228.516 22.2891H239.746C249.512 22.2891 254.395 27.1719 254.395 36.9375V73.5586L245.117 77.9531H244.629V36.9375C244.629 33.0312 243.001 31.0781 239.746 31.0781H228.516C225.26 31.0781 223.633 33.0312 223.633 36.9375V73.5586L214.355 77.9531H213.867V36.9375C213.867 33.0312 212.24 31.0781 208.984 31.0781H197.754C194.499 31.0781 192.871 33.0312 192.871 36.9375V73.5586L183.594 77.9531H183.105Z" fill="white"/>
</svg>
