<svg width="527" height="80" viewBox="0 0 527 80" fill="none" xmlns="http://www.w3.org/2000/svg">
<g clip-path="url(#clip0_82_81)">
<path d="M76.381 59.2381V45.1429L74.8571 44.1905L38.2857 64.1905L3.61905 45.1429V36.9524L38.2857 55.8095L76.5714 35.0476V21.1429L75.0476 20.1905L38.2857 40.381L4.95238 22.0952L38.2857 3.80952L65.1429 18.4762L67.2381 17.3333V15.8095L38.2857 0L0 20.7619V22.8571L38.2857 43.8095L72.9524 24.7619V33.1429L38.2857 52.1905L1.52381 32L0 32.9524V47.0476L38.2857 67.8095L72.9524 48.9524V57.1429L38.2857 76.1905L1.52381 56.1905L0 57.1429V59.2381L38.2857 80L76.381 59.2381Z" fill="white"/>
<path fill-rule="evenodd" clip-rule="evenodd" d="M149.143 4.19043V68.3809H138.857V63.619C138.857 63.238 138.667 62.8571 138.286 62.8571C137.905 62.6666 137.524 62.8571 137.333 63.0476C133.714 67.0476 128.381 69.5238 122.476 69.5238C116.381 69.5238 110.667 67.0476 106.476 62.8571C102.286 58.4761 100 52.5714 100 46.0952C100 32.9523 109.905 22.6666 122.476 22.6666C128.381 22.6666 133.905 24.9523 137.333 28.7619C137.524 28.9523 137.905 29.1428 138.286 28.9523C138.667 28.7619 138.857 28.5714 138.857 28.1904V4.19043H149.143ZM110.286 46.0952C110.286 54.2857 116.571 60.5714 124.762 60.5714C132.952 60.5714 139.238 54.2857 139.238 46.0952C139.238 37.9047 132.952 31.619 124.762 31.619C116.762 31.619 110.286 37.9047 110.286 46.0952Z" fill="white"/>
<path fill-rule="evenodd" clip-rule="evenodd" d="M203.619 23.6191V68.381H193.524V63.6191C193.524 63.2382 193.334 62.8572 192.953 62.8572C192.572 62.6667 192.191 62.8572 192 63.0477C188.381 67.2382 183.048 69.5239 177.143 69.5239C164.572 69.5239 154.667 59.2382 154.667 46.0953C154.667 32.9525 164.572 22.6667 177.143 22.6667C183.238 22.6667 188.572 24.762 192 28.762C192.191 28.9525 192.572 29.1429 192.953 28.9525C193.334 28.762 193.524 28.5715 193.524 28.1906V23.6191H203.619ZM164.953 46.0953C164.953 54.2858 171.238 60.5715 179.429 60.5715C187.619 60.5715 193.905 54.2858 193.905 46.0953C193.905 37.9048 187.619 31.6191 179.429 31.6191C171.429 31.6191 164.953 37.9048 164.953 46.0953Z" fill="white"/>
<path fill-rule="evenodd" clip-rule="evenodd" d="M290.285 23.6191V68.381H280.19V63.6191C280.19 63.2382 280 62.8572 279.619 62.8572C279.238 62.6667 278.857 62.8572 278.666 63.0477C275.047 67.2382 269.714 69.5239 263.809 69.5239C251.238 69.5239 241.333 59.2382 241.333 46.0953C241.333 32.9525 251.238 22.6667 263.809 22.6667C269.904 22.6667 275.238 24.762 278.666 28.762C278.857 28.9525 279.238 29.1429 279.619 28.9525C280 28.762 280.19 28.5715 280.19 28.1906V23.6191H290.285ZM251.619 46.0953C251.619 54.2858 257.904 60.5715 266.095 60.5715C274.285 60.5715 280.571 54.2858 280.571 46.0953C280.571 37.9048 274.285 31.6191 266.095 31.6191C257.904 31.6191 251.619 37.9048 251.619 46.0953Z" fill="white"/>
<path fill-rule="evenodd" clip-rule="evenodd" d="M309.334 63.0476C309.143 63.0476 309.143 63.0476 308.953 63.0476C308.572 63.238 308.381 63.4285 308.381 63.8095V68.3809H298.096V4.19043H308.381V28.3809C308.381 28.7619 308.572 29.1428 308.953 29.1428C309.334 29.3333 309.715 29.1428 309.905 28.9523C313.524 24.9523 318.858 22.4761 324.762 22.4761C330.858 22.4761 336.572 24.9523 340.762 29.1428C344.953 33.5238 347.239 39.4285 347.239 45.9047C347.239 59.0476 337.334 69.3333 324.762 69.3333C318.858 69.3333 313.334 67.0476 309.905 63.238C309.715 63.238 309.524 63.0476 309.334 63.0476ZM322.477 31.619C314.286 31.619 308 37.9047 308 46.0952C308 54.2857 314.286 60.5714 322.477 60.5714C330.667 60.5714 336.953 54.2857 336.953 46.0952C336.953 37.9047 330.477 31.619 322.477 31.619Z" fill="white"/>
<path d="M376.762 32.762C377.714 32.762 378.666 32.762 379.238 32.9525V22.8572C378.857 22.8572 378.285 22.6667 377.524 22.6667C372.19 22.6667 367.238 25.3334 364.762 29.5239C364.571 29.9048 364.19 30.0953 363.809 29.9048C363.428 29.7144 363.238 29.5239 363.238 29.1429V23.6191H353.143V68.381H363.428V48.762C363.047 38.8572 368.381 32.762 376.762 32.762Z" fill="white"/>
<path d="M395.809 23.6191H385.523V68.3811H395.809V23.6191Z" fill="white"/>
<path d="M390.667 4.19043C387.238 4.19043 384.381 6.8571 384.381 10.2857C384.381 13.7142 387.238 16.3809 390.667 16.3809C394.095 16.3809 396.952 13.7142 396.952 10.2857C396.952 7.04757 394.095 4.19043 390.667 4.19043Z" fill="white"/>
<path d="M426.285 22.6667C412.19 22.6667 401.904 32.5715 401.904 46.0953C401.904 52.762 404.38 58.6667 408.761 62.8572C413.142 67.0477 419.428 69.5239 426.285 69.5239C432 69.5239 436.571 68.381 444.952 62.4763L439.238 56.5715C435.047 59.2382 431.238 60.5715 427.428 60.5715C418.857 60.5715 412.38 54.2858 412.38 46.0953C412.38 37.9048 418.857 31.6191 427.428 31.6191C431.428 31.6191 435.238 32.9525 439.047 35.6191L445.523 29.7144C437.714 23.2382 430.857 22.6667 426.285 22.6667Z" fill="white"/>
<path d="M462.667 48.7619C462.858 48.5714 463.048 48.5714 463.239 48.5714C463.429 48.5714 463.62 48.7619 463.81 48.9523L480.191 68.5714H492.762L471.62 43.8095C471.239 43.4285 471.429 43.0476 471.62 42.6666L491.048 23.8095H478.667L461.905 40C461.715 40.1904 461.334 40.3809 460.953 40.1904C460.572 40 460.381 39.8095 460.381 39.4285V4.19043H450.096V68.3809H460.381V51.0476C460.381 50.8571 460.572 50.6666 460.572 50.4761L462.667 48.7619Z" fill="white"/>
<path d="M509.714 69.5239C518.095 69.5239 526.667 64.5715 526.667 55.2382C526.667 49.1429 522.667 44.9525 514.476 42.2858L508.952 40.5715C505.143 39.4287 503.429 37.7144 503.429 35.2382C503.429 32.5715 505.905 30.6667 509.524 30.6667C512.952 30.6667 516 32.762 517.905 36.5715L526.095 32.381C523.048 26.2858 516.762 22.6667 509.524 22.6667C500.381 22.6667 493.714 28.381 493.714 36.1906C493.714 42.4763 497.524 46.6668 505.333 48.9525L511.048 50.6667C515.048 51.8096 516.762 53.3334 516.762 56.0001C516.762 59.8096 513.143 61.1429 510.095 61.1429C505.905 61.1429 502.286 58.4763 500.381 54.2858L492 58.4763C494.667 65.3334 501.524 69.5239 509.714 69.5239Z" fill="white"/>
<path d="M232 69.1429C235.238 69.1429 238.095 68.9524 239.809 68.5714V60C238.476 60.1905 236.19 60.381 234.666 60.381C230.476 60.381 227.428 59.6191 227.428 51.0476V32.7619C227.428 32.381 227.809 32 228.381 32H238.285V24H228.381C227.809 24 227.428 23.6191 227.428 23.2381V9.90479H217.333V22.8572C217.333 23.2381 216.952 23.6191 216.381 23.6191H209.333V31.6191H216.381C216.952 31.6191 217.333 32 217.333 32.381V53.1429C217.143 69.1429 228 69.1429 232 69.1429Z" fill="white"/>
</g>
<defs>
<clipPath id="clip0_82_81">
<rect width="526.476" height="80" fill="white"/>
</clipPath>
</defs>
</svg>
