<svg width="583" height="80" viewBox="0 0 583 80" fill="none" xmlns="http://www.w3.org/2000/svg">
<path fill-rule="evenodd" clip-rule="evenodd" d="M6.66309 3.33325H21.7778V75.4533H6.66309V3.33325ZM36.6892 3.33325H51.8039V75.4533H36.6892V3.33325ZM66.7121 3.33325H111.447V15.3533H81.8301V32.5266H109.418V44.5466H81.8268V63.4333H111.447V75.4533H66.7121V3.33325ZM120.678 3.33325H134.98V75.4533H120.675L120.678 3.33325ZM143.601 48.3833C143.601 28.6866 153.442 20.2033 168.757 20.2033C184.075 20.2033 192.8 28.5866 192.8 48.5866V51.8199H157.703C158.21 63.5366 161.758 67.4733 168.557 67.4733C173.931 67.4733 177.279 64.3399 177.885 58.8899H192.19C191.278 70.8066 181.337 76.6666 168.557 76.6666C152.326 76.6666 143.601 68.0799 143.601 48.3833ZM178.698 42.4233C177.988 32.5233 174.54 29.2899 168.557 29.2899C162.571 29.2899 158.816 32.6233 157.803 42.4233H178.698ZM210.45 21.4133H195.842L213.492 75.4566H229.216L246.866 21.4133H232.257L221.207 62.1233L210.447 21.4133H210.45ZM249.604 48.3833C249.604 28.6866 259.445 20.2033 274.763 20.2033C290.078 20.2033 298.803 28.5866 298.803 48.5866V51.8199H263.706C264.212 63.5366 267.764 67.4733 274.56 67.4733C279.937 67.4733 283.282 64.3399 283.891 58.8899H298.193C297.28 70.8066 287.339 76.6666 274.56 76.6666C258.329 76.6666 249.604 68.0799 249.604 48.3833ZM284.704 42.4233C283.995 32.5233 280.543 29.2899 274.56 29.2899C268.573 29.2899 264.822 32.6233 263.806 42.4233H284.704ZM321.933 43.6333C321.933 35.1499 325.987 30.5033 332.277 30.5033C337.451 30.5033 340.392 33.7366 340.392 40.7066V75.4533H354.697V38.4866C354.697 25.9599 347.595 20.2033 337.247 20.2033C330.251 20.2033 324.468 23.7366 321.933 28.3833V21.4166H307.424V75.4533H321.933V43.6333ZM366.561 3.33325H381.675V63.4333H410.079V75.4533H366.561V3.33325Z" fill="white"/>
<path fill-rule="evenodd" clip-rule="evenodd" d="M413.63 48.3833C413.63 27.7766 423.165 20.2033 435.438 20.2033C441.524 20.2033 447.105 23.6366 449.337 27.2699V21.4166H463.942V75.4566H449.743V69.0933C447.611 73.3333 441.628 76.6666 435.031 76.6666C422.049 76.6666 413.63 68.3833 413.63 48.3833ZM439.192 30.8066C446.292 30.8066 450.146 36.1599 450.146 48.3833C450.146 60.6066 446.292 66.0599 439.192 66.0599C432.09 66.0599 428.032 60.6066 428.032 48.3833C428.032 36.1599 432.09 30.8066 439.192 30.8066ZM489.2 69.0899V75.4566H474.999V3.33325H489.304V27.2733C491.736 23.5366 497.419 20.2033 503.506 20.2033C515.475 20.2033 525.01 27.7766 525.01 48.3833C525.01 68.9899 515.675 76.6666 503.199 76.6666C496.606 76.6666 491.229 73.3333 489.2 69.0899ZM499.448 30.9099C506.547 30.9099 510.605 36.1599 510.605 48.3833C510.605 60.6066 506.547 66.0599 499.448 66.0599C492.345 66.0599 488.491 60.6066 488.491 48.3833C488.491 36.1599 492.345 30.9099 499.448 30.9099Z" fill="white"/>
<path fill-rule="evenodd" clip-rule="evenodd" d="M530.893 59.3934H545.195C545.398 65.05 548.443 67.7767 553.817 67.7767C559.194 67.7767 562.239 65.3534 562.239 61.11C562.239 57.2734 559.903 55.86 554.833 54.6434L550.469 53.5367C538.096 50.4034 531.906 47.07 531.906 36.87C531.906 26.6667 541.444 20.2034 553.613 20.2034C565.786 20.2034 575.018 24.95 575.424 36.16H561.122C560.816 31.2134 557.774 29.0934 553.414 29.0934C549.049 29.0934 546.008 31.2134 546.008 35.2534C546.008 38.9867 548.443 40.4034 552.701 41.4134L557.165 42.5267C568.931 45.4534 576.337 48.3834 576.337 59.2934C576.337 70.2034 566.599 76.6667 553.414 76.6667C539.108 76.6667 531.196 71.3134 530.893 59.3934Z" fill="white"/>
</svg>
