<svg width="433" height="80" viewBox="0 0 433 80" fill="none" xmlns="http://www.w3.org/2000/svg">
<g clip-path="url(#clip0_18_177)">
<path d="M40.1225 79.9745C62.2681 79.9745 80.2206 62.0779 80.2206 40.0013C80.2206 17.9247 62.2681 0.0280762 40.1225 0.0280762C17.9769 0.0280762 0.0244141 17.9247 0.0244141 40.0013C0.0244141 62.0779 17.9769 79.9745 40.1225 79.9745Z" fill="white" fill-opacity="0.980392"/>
<path d="M37.3558 18.1279L29.3395 35.9335L25.6766 44.069L17.6597 61.8745L54.5692 35.9335H37.2517L62.5854 18.1279H37.3558Z" fill="#060E17" fill-opacity="0.980392"/>
<path d="M111.88 74.2682V5.2366H153.513V13.5045H121.541V34.3235H149.927V42.4918H121.541V74.2682H111.88ZM177.218 67.5942C179.409 67.5942 181.335 67.561 182.995 67.4946C184.721 67.3617 186.149 67.1625 187.277 66.8969V51.4569C186.613 51.1249 185.518 50.8592 183.991 50.66C182.53 50.3944 180.737 50.2616 178.612 50.2616C177.218 50.2616 175.724 50.3612 174.13 50.5604C172.603 50.7596 171.175 51.1913 169.847 51.8554C168.586 52.453 167.523 53.3163 166.66 54.4453C165.797 55.5078 165.365 56.9356 165.365 58.7286C165.365 62.0491 166.428 64.3734 168.553 65.7015C170.677 66.9633 173.566 67.5942 177.218 67.5942ZM176.421 21.1746C180.139 21.1746 183.26 21.6727 185.783 22.6688C188.373 23.5985 190.432 24.9599 191.959 26.7529C193.552 28.4796 194.681 30.5714 195.345 33.0286C196.009 35.4193 196.341 38.0756 196.341 40.9976V73.3717C195.544 73.5045 194.416 73.7038 192.955 73.9694C191.56 74.1686 189.967 74.3678 188.174 74.5671C186.381 74.7663 184.422 74.9323 182.297 75.0651C180.239 75.2644 178.181 75.364 176.122 75.364C173.201 75.364 170.511 75.0651 168.055 74.4675C165.598 73.8698 163.473 72.9401 161.68 71.6783C159.887 70.3501 158.493 68.6235 157.497 66.4984C156.501 64.3734 156.003 61.8166 156.003 58.8283C156.003 55.9727 156.567 53.5156 157.696 51.4569C158.891 49.3983 160.485 47.738 162.477 46.4763C164.469 45.2145 166.793 44.2848 169.449 43.6871C172.105 43.0894 174.894 42.7906 177.815 42.7906C178.745 42.7906 179.708 42.857 180.704 42.9898C181.7 43.0562 182.629 43.1891 183.493 43.3883C184.422 43.5211 185.219 43.6539 185.883 43.7867C186.547 43.9195 187.012 44.0192 187.277 44.0856V41.4956C187.277 39.9682 187.111 38.474 186.779 37.0131C186.447 35.4857 185.85 34.1575 184.987 33.0286C184.123 31.8332 182.928 30.9035 181.401 30.2394C179.94 29.5089 178.015 29.1437 175.624 29.1437C172.57 29.1437 169.881 29.3761 167.557 29.8409C165.299 30.2394 163.606 30.671 162.477 31.1359L161.381 23.4657C162.576 22.9345 164.568 22.4364 167.357 21.9715C170.146 21.4403 173.167 21.1746 176.421 21.1746ZM223.731 67.5942C227.516 67.5942 230.305 67.0961 232.098 66.1C233.957 65.1039 234.887 63.5101 234.887 61.3186C234.887 59.0607 233.99 57.2677 232.197 55.9395C230.405 54.6113 227.45 53.1171 223.333 51.4569C221.341 50.66 219.415 49.8631 217.556 49.0662C215.763 48.2029 214.203 47.2068 212.875 46.0778C211.547 44.9489 210.484 43.5875 209.688 41.9937C208.891 40.3999 208.492 38.4408 208.492 36.1165C208.492 31.5344 210.186 27.9151 213.572 25.2588C216.958 22.536 221.573 21.1746 227.417 21.1746C228.877 21.1746 230.338 21.2742 231.799 21.4735C233.26 21.6063 234.621 21.8055 235.883 22.0712C237.144 22.2704 238.24 22.5028 239.169 22.7684C240.165 23.0341 240.929 23.2665 241.46 23.4657L239.767 31.4347C238.771 30.9035 237.211 30.3722 235.086 29.8409C232.961 29.2433 230.405 28.9444 227.417 28.9444C224.827 28.9444 222.569 29.4757 220.644 30.5382C218.718 31.5344 217.755 33.1282 217.755 35.3196C217.755 36.4486 217.954 37.4447 218.353 38.308C218.818 39.1713 219.482 39.9682 220.345 40.6987C221.274 41.3628 222.403 41.9937 223.731 42.5914C225.059 43.1891 226.653 43.8199 228.512 44.484C230.969 45.4137 233.16 46.3435 235.086 47.2732C237.011 48.1365 238.638 49.1658 239.966 50.3612C241.361 51.5565 242.423 53.0175 243.153 54.7441C243.884 56.4043 244.249 58.463 244.249 60.9201C244.249 65.7015 242.456 69.3208 238.871 71.7779C235.351 74.235 230.305 75.4636 223.731 75.4636C219.15 75.4636 215.564 75.0651 212.974 74.2682C210.385 73.5377 208.625 72.9733 207.696 72.5748L209.389 64.6058C210.451 65.0042 212.144 65.6019 214.468 66.3988C216.792 67.1957 219.88 67.5942 223.731 67.5942ZM264.767 22.4696H284.388V30.2394H264.767V54.1465C264.767 56.7364 264.966 58.8947 265.364 60.6213C265.763 62.2815 266.36 63.6097 267.157 64.6058C267.954 65.5355 268.95 66.1996 270.145 66.598C271.34 66.9965 272.735 67.1957 274.328 67.1957C277.117 67.1957 279.342 66.8969 281.002 66.2992C282.728 65.6351 283.923 65.1703 284.587 64.9046L286.38 72.5748C285.45 73.0397 283.824 73.6041 281.5 74.2682C279.176 74.9987 276.52 75.364 273.532 75.364C270.012 75.364 267.091 74.9323 264.767 74.069C262.509 73.1393 260.683 71.7779 259.289 69.9849C257.894 68.1919 256.898 66.0004 256.301 63.4104C255.769 60.7541 255.504 57.6993 255.504 54.2461V8.02575L264.767 6.43195V22.4696ZM342.854 74.2682C341.725 71.2798 340.662 68.3579 339.666 65.5023C338.67 62.5803 337.641 59.6252 336.579 56.6368H305.304L299.029 74.2682H288.97C291.626 66.9633 294.116 60.2228 296.44 54.0468C298.764 47.8044 301.021 41.8941 303.212 36.3158C305.47 30.7375 307.694 25.4248 309.886 20.3777C312.077 15.2643 314.368 10.2172 316.758 5.2366H325.623C328.013 10.2172 330.304 15.2643 332.495 20.3777C334.686 25.4248 336.878 30.7375 339.069 36.3158C341.326 41.8941 343.617 47.8044 345.941 54.0468C348.265 60.2228 350.755 66.9633 353.411 74.2682H342.854ZM333.79 48.6678C331.665 42.8902 329.54 37.3119 327.415 31.9328C325.357 26.4873 323.199 21.2742 320.941 16.2936C318.617 21.2742 316.393 26.4873 314.268 31.9328C312.21 37.3119 310.151 42.8902 308.093 48.6678H333.79ZM381.1 4.53931C390.795 4.53931 398.231 6.39875 403.411 10.1176C408.656 13.7701 411.279 19.2488 411.279 26.5537C411.279 30.5382 410.549 33.9583 409.088 36.8138C407.693 39.603 405.635 41.8941 402.913 43.6871C400.257 45.4137 397.003 46.6755 393.152 47.4724C389.301 48.2693 384.951 48.6678 380.104 48.6678H372.435V74.2682H362.774V6.23272C365.496 5.56864 368.517 5.13698 371.837 4.93776C375.224 4.67212 378.311 4.53931 381.1 4.53931ZM381.897 13.0064C377.78 13.0064 374.626 13.106 372.435 13.3052V40.3999H379.706C383.026 40.3999 386.014 40.2007 388.67 39.8022C391.326 39.3374 393.55 38.6069 395.343 37.6107C397.202 36.5482 398.63 35.1204 399.626 33.3274C400.622 31.5344 401.12 29.2433 401.12 26.4541C401.12 23.7978 400.589 21.6063 399.526 19.8797C398.53 18.153 397.136 16.7917 395.343 15.7955C393.617 14.733 391.591 14.0025 389.267 13.6041C386.943 13.2056 384.486 13.0064 381.897 13.0064ZM423.331 5.2366H432.992V74.2682H423.331V5.2366Z" fill="white"/>
</g>
<defs>
<clipPath id="clip0_18_177">
<rect width="433" height="80" fill="white"/>
</clipPath>
</defs>
</svg>
