<svg width="517" height="80" viewBox="0 0 517 80" fill="none" xmlns="http://www.w3.org/2000/svg">
<path d="M62.4113 21.1714H65.2676L73.4083 13.0285L73.8081 9.5714C69.1447 5.45413 63.5089 2.59401 57.4331 1.26121C51.3573 -0.0715906 45.0422 0.166935 39.0842 1.95425C33.1262 3.74157 27.7221 7.01868 23.3823 11.476C19.0425 15.9333 15.9104 21.4237 14.2817 27.4285C15.1886 27.0567 16.1933 26.9964 17.1381 27.2571L33.4193 24.5714C33.4193 24.5714 34.2477 23.2 34.6761 23.2857C38.1647 19.4533 42.9857 17.0997 48.1524 16.7066C53.3191 16.3136 58.4406 17.9108 62.4684 21.1714H62.4113Z" fill="black"/>
<path d="M85.0051 27.4287C83.134 20.5362 79.2922 14.3399 73.9511 9.6001L62.5256 21.0287C64.9068 22.9749 66.8151 25.4365 68.1065 28.2279C69.3979 31.0193 70.0388 34.0677 69.9807 37.143V39.1715C71.3161 39.1715 72.6384 39.4346 73.8721 39.9458C75.1058 40.4569 76.2268 41.2062 77.171 42.1507C78.1153 43.0952 78.8643 44.2165 79.3753 45.4505C79.8863 46.6846 80.1493 48.0072 80.1493 49.343C80.1493 50.6787 79.8863 52.0013 79.3753 53.2354C78.8643 54.4694 78.1153 55.5907 77.171 56.5352C76.2268 57.4797 75.1058 58.229 73.8721 58.7401C72.6384 59.2513 71.3161 59.5144 69.9807 59.5144H49.6435L47.6155 61.5715V73.7715L49.6435 75.8001H69.9807C75.6598 75.8443 81.2023 74.0589 85.7884 70.708C90.3744 67.3571 93.7604 62.6187 95.4455 57.1936C97.1305 51.7686 97.0251 45.9451 95.1449 40.5846C93.2646 35.2241 89.7094 30.6114 85.0051 27.4287Z" fill="black"/>
<path d="M29.2776 75.6858H49.6148V59.4001H29.2776C27.8286 59.3998 26.3967 59.088 25.0787 58.4858L22.2224 59.3716L14.0246 67.5144L13.3105 70.3716C17.9077 73.8439 23.5171 75.7108 29.2776 75.6858Z" fill="black"/>
<path d="M29.2777 22.8571C23.7673 22.89 18.4047 24.6437 13.939 27.8731C9.47336 31.1025 6.12756 35.6465 4.36895 40.8703C2.61033 46.0941 2.52673 51.7369 4.12982 57.0105C5.7329 62.2842 8.94262 66.9253 13.3107 70.2857L25.1074 58.4857C23.6083 57.8082 22.2959 56.777 21.2827 55.4806C20.2696 54.1842 19.5861 52.6614 19.2907 51.0426C18.9954 49.4239 19.097 47.7576 19.587 46.1868C20.0769 44.6161 20.9406 43.1876 22.1038 42.0241C23.267 40.8606 24.695 39.9967 26.2654 39.5066C27.8358 39.0165 29.5015 38.9148 31.1198 39.2102C32.7381 39.5057 34.2606 40.1894 35.5566 41.2028C36.8526 42.2162 37.8835 43.529 38.5608 45.0285L50.3576 33.2285C47.8815 29.9907 44.6903 27.3697 41.0334 25.5705C37.3764 23.7712 33.353 22.8426 29.2777 22.8571Z" fill="black"/>
<path d="M150.787 64.3142C147.286 64.3589 143.811 63.6961 140.572 62.3656C137.332 61.0352 134.395 59.0644 131.935 56.5714C129.398 54.1841 127.384 51.2955 126.022 48.0886C124.66 44.8818 123.979 41.4268 124.023 37.9428C123.981 34.4591 124.663 31.0046 126.025 27.798C127.387 24.5914 129.399 21.7025 131.935 19.3142C134.383 16.7954 137.315 14.7982 140.555 13.4429C143.795 12.0877 147.275 11.4025 150.787 11.4285C154.133 11.3839 157.455 12.005 160.559 13.2558C163.663 14.5065 166.487 16.362 168.868 18.7142L163.783 23.8857C160.302 20.5198 155.629 18.6706 150.787 18.7428C148.275 18.7119 145.785 19.204 143.474 20.1878C141.163 21.1715 139.081 22.6254 137.362 24.4571C135.575 26.2302 134.166 28.3466 133.218 30.679C132.271 33.0113 131.805 35.5114 131.849 38.0285C131.828 40.5169 132.305 42.9844 133.252 45.2857C134.199 47.587 135.596 49.6756 137.362 51.4285C140.899 54.9545 145.673 56.9603 150.666 57.019C155.659 57.0777 160.479 55.1847 164.098 51.7428C166.338 49.2885 167.713 46.1673 168.011 42.8571H150.873V35.5428H175.123C175.361 37.0159 175.457 38.5085 175.409 39.9999C175.56 43.0868 175.083 46.1722 174.008 49.0696C172.933 51.967 171.281 54.6162 169.153 56.8571C166.788 59.3209 163.929 61.2585 160.765 62.5434C157.6 63.8282 154.2 64.4316 150.787 64.3142ZM207.171 59.4571C203.917 62.5776 199.583 64.3198 195.075 64.3198C190.567 64.3198 186.233 62.5776 182.978 59.4571C181.358 57.886 180.083 55.9954 179.232 53.905C178.381 51.8147 177.974 49.5703 178.037 47.3142C177.976 45.0584 178.384 42.8145 179.234 40.7244C180.085 38.6343 181.36 36.7435 182.978 35.1714C186.236 32.0574 190.569 30.3196 195.075 30.3196C199.581 30.3196 203.914 32.0574 207.171 35.1714C208.79 36.7435 210.065 38.6343 210.915 40.7244C211.766 42.8145 212.174 45.0584 212.113 47.3142C212.172 49.5723 211.76 51.818 210.905 53.9085C210.049 55.999 208.768 57.8885 207.143 59.4571H207.171ZM188.319 54.6857C189.185 55.6104 190.231 56.3475 191.393 56.8515C192.555 57.3554 193.808 57.6154 195.075 57.6154C196.341 57.6154 197.594 57.3554 198.756 56.8515C199.918 56.3475 200.964 55.6104 201.83 54.6857C202.774 53.7099 203.513 52.5549 204.004 51.2889C204.494 50.0229 204.726 48.6714 204.686 47.3142C204.729 45.9525 204.497 44.5961 204.007 43.3251C203.516 42.0541 202.776 40.8944 201.83 39.9142C200.953 38.999 199.9 38.2707 198.734 37.7732C197.568 37.2756 196.314 37.0192 195.046 37.0192C193.779 37.0192 192.524 37.2756 191.358 37.7732C190.193 38.2707 189.14 38.999 188.262 39.9142C187.316 40.8944 186.576 42.0541 186.086 43.3251C185.595 44.5961 185.364 45.9525 185.406 47.3142C185.37 48.6734 185.607 50.0261 186.102 51.2922C186.598 52.5583 187.342 53.7122 188.291 54.6857H188.319ZM244.361 59.4571C241.107 62.5776 236.773 64.3198 232.264 64.3198C227.756 64.3198 223.422 62.5776 220.168 59.4571C218.548 57.886 217.272 55.9954 216.422 53.905C215.571 51.8147 215.164 49.5703 215.226 47.3142C215.166 45.0584 215.573 42.8145 216.424 40.7244C217.275 38.6343 218.549 36.7435 220.168 35.1714C223.422 32.0508 227.756 30.3087 232.264 30.3087C236.773 30.3087 241.107 32.0508 244.361 35.1714C245.98 36.7435 247.254 38.6343 248.105 40.7244C248.956 42.8145 249.363 45.0584 249.303 47.3142C249.365 49.5703 248.958 51.8147 248.107 53.905C247.257 55.9954 245.981 57.886 244.361 59.4571ZM225.509 54.6857C226.375 55.6104 227.421 56.3475 228.583 56.8515C229.745 57.3554 230.998 57.6154 232.264 57.6154C233.531 57.6154 234.784 57.3554 235.946 56.8515C237.108 56.3475 238.154 55.6104 239.02 54.6857C239.964 53.7099 240.703 52.5549 241.193 51.2889C241.684 50.0229 241.916 48.6714 241.876 47.3142C241.918 45.9525 241.687 44.5961 241.197 43.3251C240.706 42.0541 239.966 40.8944 239.02 39.9142C238.143 38.999 237.089 38.2707 235.924 37.7732C234.758 37.2756 233.503 37.0192 232.236 37.0192C230.968 37.0192 229.714 37.2756 228.548 37.7732C227.382 38.2707 226.329 38.999 225.452 39.9142C224.506 40.8944 223.766 42.0541 223.275 43.3251C222.785 44.5961 222.554 45.9525 222.596 47.3142C222.56 48.6734 222.796 50.0261 223.292 51.2922C223.787 52.5583 224.532 53.7122 225.481 54.6857H225.509ZM268.812 79.5714C265.388 79.6803 262.031 78.6113 259.3 76.5428C256.875 74.7196 254.966 72.2976 253.759 69.5142L260.271 66.7999C260.98 68.4634 262.089 69.9258 263.499 71.0571C265.008 72.2742 266.902 72.9124 268.84 72.8571C270.069 72.9319 271.3 72.7409 272.448 72.2972C273.596 71.8534 274.636 71.1673 275.495 70.2857C277.216 68.2093 278.066 65.5468 277.866 62.8571V60.3999H277.609C276.521 61.6931 275.146 62.7149 273.594 63.3844C272.042 64.0539 270.356 64.3527 268.669 64.2571C266.524 64.2636 264.402 63.8251 262.435 62.9694C260.468 62.1137 258.701 60.8594 257.243 59.2857C255.662 57.7244 254.414 55.8585 253.574 53.8008C252.735 51.7431 252.321 49.5364 252.359 47.3142C252.319 45.0791 252.732 42.859 253.571 40.7871C254.41 38.7152 255.659 36.8343 257.243 35.2571C258.697 33.6768 260.463 32.4162 262.43 31.5554C264.397 30.6946 266.522 30.2525 268.669 30.2571C270.486 30.2539 272.281 30.654 273.924 31.4285C275.346 32.0496 276.614 32.9763 277.638 34.1428H277.895V31.4285H284.978V61.8571C285.165 64.2642 284.858 66.684 284.077 68.9684C283.297 71.2529 282.058 73.3539 280.437 75.1428C278.893 76.6202 277.069 77.7732 275.072 78.5338C273.076 79.2945 270.947 79.6472 268.812 79.5714ZM269.326 57.6285C270.545 57.6553 271.756 57.4132 272.872 56.9195C273.987 56.4257 274.981 55.6923 275.781 54.7714C277.543 52.7512 278.473 50.1367 278.38 47.4571C278.486 44.7323 277.558 42.0683 275.781 39.9999C274.982 39.0775 273.989 38.343 272.873 37.8491C271.757 37.3552 270.546 37.114 269.326 37.1428C268.073 37.1171 266.829 37.3585 265.676 37.8512C264.524 38.3438 263.489 39.0763 262.642 39.9999C260.752 41.994 259.726 44.6532 259.785 47.3999C259.756 48.7472 259.994 50.087 260.484 51.3422C260.974 52.5974 261.707 53.7434 262.642 54.7142C263.485 55.6468 264.517 56.389 265.67 56.8915C266.822 57.3939 268.069 57.6452 269.326 57.6285ZM297.575 13.3428V63.2857H290.12V13.3428H297.575ZM318.026 64.3142C315.794 64.3716 313.573 63.9673 311.504 63.1266C309.435 62.2859 307.562 61.0269 306.001 59.4285C304.418 57.8418 303.174 55.9497 302.344 53.8673C301.514 51.7848 301.116 49.5553 301.174 47.3142C301.09 45.0677 301.458 42.8271 302.258 40.7261C303.058 38.6252 304.273 36.7069 305.83 35.0857C307.297 33.5384 309.071 32.3148 311.039 31.4931C313.006 30.6715 315.124 30.2699 317.255 30.3142C319.215 30.2935 321.159 30.6727 322.968 31.4285C324.597 32.0863 326.082 33.057 327.338 34.2857C328.417 35.3273 329.375 36.4869 330.195 37.7428C330.857 38.8031 331.422 39.9221 331.88 41.0857L332.651 43.0285L309.8 52.4285C310.491 54.0168 311.647 55.3584 313.116 56.2765C314.584 57.1945 316.296 57.646 318.026 57.5714C319.71 57.576 321.366 57.1441 322.832 56.3179C324.299 55.4916 325.527 54.2993 326.396 52.8571L332.108 56.7142C330.65 58.8006 328.785 60.5695 326.624 61.9142C324.055 63.5381 321.065 64.3725 318.026 64.3142ZM308.486 46.7999L323.682 40.4857C323.214 39.3723 322.377 38.4542 321.311 37.8857C320.118 37.2118 318.768 36.8667 317.398 36.8857C315.074 36.9459 312.867 37.9213 311.257 39.5999C310.294 40.522 309.546 41.6455 309.067 42.8901C308.588 44.1347 308.39 45.4698 308.486 46.7999Z" fill="black"/>
<path d="M371.697 64.3142C368.527 64.3689 365.378 63.7822 362.44 62.5894C359.502 61.3965 356.835 59.6221 354.599 57.3725C352.364 55.123 350.605 52.4448 349.43 49.4988C348.255 46.5527 347.688 43.3995 347.761 40.2285C347.688 37.0574 348.255 33.9042 349.43 30.9581C350.605 28.0121 352.364 25.3339 354.599 23.0844C356.835 20.8348 359.502 19.0604 362.44 17.8675C365.378 16.6747 368.527 16.088 371.697 16.1427C374.906 16.0424 378.097 16.6687 381.03 17.9748C383.963 19.2809 386.563 21.2331 388.636 23.6856L384.522 27.6856C383.001 25.771 381.049 24.2427 378.825 23.2249C376.602 22.2072 374.169 21.7287 371.726 21.8284C369.374 21.7754 367.036 22.1986 364.851 23.0726C362.667 23.9466 360.682 25.2533 359.015 26.9142C357.282 28.6571 355.929 30.7395 355.039 33.0308C354.149 35.322 353.743 37.7726 353.845 40.2285C353.743 42.6843 354.149 45.1349 355.039 47.4261C355.929 49.7174 357.282 51.7998 359.015 53.5427C360.682 55.2036 362.667 56.5103 364.851 57.3843C367.036 58.2583 369.374 58.6815 371.726 58.6285C374.456 58.6591 377.157 58.0739 379.63 56.9164C382.102 55.7589 384.282 54.0589 386.008 51.9427L390.121 56.057C387.967 58.633 385.264 60.693 382.209 62.0856C378.916 63.6062 375.324 64.3678 371.697 64.3142Z" fill="black"/>
<path d="M401.175 63.2859H395.262V17.1431H401.175V63.2859Z" fill="black"/>
<path d="M410.829 35.5145C413.928 32.4367 418.117 30.7095 422.483 30.7095C426.85 30.7095 431.039 32.4367 434.137 35.5145C435.652 37.1145 436.836 38.9985 437.62 41.0579C438.405 43.1174 438.774 45.3117 438.707 47.5145C438.774 49.7173 438.405 51.9116 437.62 53.971C436.836 56.0305 435.652 57.9144 434.137 59.5145C431.039 62.5922 426.85 64.3195 422.483 64.3195C418.117 64.3195 413.928 62.5922 410.829 59.5145C409.314 57.9144 408.131 56.0305 407.346 53.971C406.562 51.9116 406.192 49.7173 406.259 47.5145C406.192 45.3117 406.562 43.1174 407.346 41.0579C408.131 38.9985 409.314 37.1145 410.829 35.5145ZM415.228 55.8002C416.16 56.785 417.282 57.5694 418.527 58.1055C419.772 58.6416 421.114 58.9181 422.469 58.9181C423.824 58.9181 425.166 58.6416 426.411 58.1055C427.656 57.5694 428.778 56.785 429.71 55.8002C430.743 54.691 431.546 53.3871 432.07 51.9646C432.595 50.5421 432.832 49.0293 432.766 47.5145C432.832 45.9996 432.595 44.4869 432.07 43.0644C431.546 41.6419 430.743 40.338 429.71 39.2288C428.778 38.2439 427.656 37.4595 426.411 36.9234C425.166 36.3873 423.824 36.1108 422.469 36.1108C421.114 36.1108 419.772 36.3873 418.527 36.9234C417.282 37.4595 416.16 38.2439 415.228 39.2288C414.195 40.338 413.392 41.6419 412.867 43.0644C412.343 44.4869 412.106 45.9996 412.172 47.5145C412.114 49.0266 412.357 50.5351 412.886 51.9525C413.416 53.37 414.222 54.6681 415.257 55.7716L415.228 55.8002Z" fill="black"/>
<path d="M471.47 63.2855H465.757V58.9141H465.586C464.569 60.5744 463.13 61.935 461.415 62.857C459.636 63.8883 457.616 64.4305 455.56 64.4284C453.89 64.5426 452.216 64.2782 450.663 63.6548C449.11 63.0315 447.718 62.0653 446.591 60.8284C444.427 58.0908 443.34 54.6557 443.534 51.1712V31.7427H449.447V50.0855C449.447 55.9713 452.046 58.9141 457.245 58.9141C458.4 58.9501 459.547 58.7096 460.59 58.2127C461.634 57.7157 462.543 56.9766 463.243 56.057C464.776 54.1142 465.593 51.7028 465.557 49.2284V31.7427H471.47V63.2855Z" fill="black"/>
<path d="M491.55 64.3145C489.544 64.3212 487.561 63.893 485.736 63.0594C483.912 62.2258 482.29 61.0067 480.982 59.4859C478.02 56.2143 476.434 51.9263 476.554 47.5145C476.434 43.1027 478.02 38.8147 480.982 35.5431C482.29 34.0223 483.912 32.8031 485.736 31.9696C487.561 31.136 489.544 30.7078 491.55 30.7145C493.797 30.679 496.017 31.2096 498.005 32.2574C499.753 33.1368 501.232 34.4688 502.29 36.1145H502.547L502.29 31.7431V17.1431H508.203V63.2859H502.49V58.9145H502.233C501.175 60.5602 499.696 61.8922 497.948 62.7716C495.977 63.8101 493.778 64.3404 491.55 64.3145ZM492.521 58.9145C493.858 58.934 495.183 58.6689 496.409 58.1369C497.635 57.6049 498.735 56.8181 499.634 55.8288C501.642 53.5412 502.668 50.5539 502.49 47.5145C502.668 44.4751 501.642 41.4878 499.634 39.2002C498.729 38.2055 497.626 37.4108 496.396 36.867C495.167 36.3232 493.837 36.0423 492.493 36.0423C491.148 36.0423 489.818 36.3232 488.589 36.867C487.359 37.4108 486.257 38.2055 485.352 39.2002C484.354 40.3254 483.588 41.6364 483.098 43.0583C482.608 44.4801 482.403 45.9848 482.495 47.4859C482.403 48.9871 482.608 50.4917 483.098 51.9136C483.588 53.3354 484.354 54.6465 485.352 55.7716C486.252 56.7787 487.358 57.5805 488.595 58.1227C489.832 58.6649 491.171 58.935 492.521 58.9145Z" fill="black"/>
</svg>
