<svg width="129" height="91" viewBox="0 0 129 91" fill="none" xmlns="http://www.w3.org/2000/svg">
<path d="M36.585 0H18.292V18.123H36.585V0Z" fill="white"/>
<path d="M109.766 0H91.4727V18.123H109.766V0Z" fill="white"/>
<path d="M54.878 18.1211H18.292V36.2441H54.878V18.1211Z" fill="white"/>
<path d="M109.767 18.1211H73.1807V36.2441H109.767V18.1211Z" fill="white"/>
<path d="M109.768 36.2429H18.292V54.3649H109.768V36.2429Z" fill="white"/>
<path d="M36.585 54.3701H18.292V72.4931H36.585V54.3701Z" fill="white"/>
<path d="M73.1758 54.3701H54.8828V72.4931H73.1758V54.3701Z" fill="white"/>
<path d="M109.766 54.3701H91.4727V72.4931H109.766V54.3701Z" fill="white"/>
<path d="M54.89 72.5039H0V90.6269H54.89V72.5039Z" fill="white"/>
<path d="M128.071 72.5039H73.1807V90.6269H128.071V72.5039Z" fill="white"/>
</svg>
