<svg width="402" height="88" viewBox="0 0 402 88" fill="none" xmlns="http://www.w3.org/2000/svg">
<g filter="url(#filter0_d_18_178)">
<g clip-path="url(#clip0_18_178)">
<path d="M265.919 0.032959H334.547V12.6999H307.323V79.3389H293.71V12.6999H265.919V0.032959Z" fill="white"/>
<path d="M153.052 0.032959V12.6999H98.0421V33.0771H142.281V45.744H98.0421V66.672H153.052V79.3389H84.43V12.6999H84.4243V0.032959H153.052Z" fill="white"/>
<path d="M187.32 0.0661621H169.506L233.312 79.3721H251.178L219.271 39.7464L251.127 0.126668L233.312 0.154198L210.352 28.6697L187.32 0.0661621Z" fill="white"/>
<path d="M205.6 56.7147L196.679 45.6228L169.455 79.4325H187.32L205.6 56.7147Z" fill="white"/>
<path fill-rule="evenodd" clip-rule="evenodd" d="M84.907 79.339L21.0151 0H4V79.3059H17.6121V16.9516L67.8067 79.339H84.907Z" fill="white"/>
<path d="M337.607 78.8545C336.61 78.8545 335.762 78.5092 335.052 77.8185C334.342 77.1278 333.991 76.2916 334 75.301C333.991 74.3376 334.342 73.5105 335.052 72.8198C335.762 72.1291 336.61 71.7837 337.607 71.7837C338.566 71.7837 339.405 72.1291 340.115 72.8198C340.835 73.5105 341.194 74.3376 341.204 75.301C341.194 75.9553 341.028 76.5551 340.696 77.0913C340.355 77.6367 339.922 78.0639 339.377 78.3729C338.842 78.691 338.252 78.8545 337.607 78.8545Z" fill="white"/>
<path d="M360.84 45.4453H366.872V68.6846C366.863 70.8204 366.401 72.6472 365.498 74.1832C364.585 75.7191 363.321 76.8914 361.698 77.7185C360.084 78.5364 358.193 78.9546 356.044 78.9546C354.079 78.9546 352.318 78.6001 350.75 77.9094C349.182 77.2187 347.937 76.1826 347.024 74.8193C346.101 73.456 345.649 71.7565 345.649 69.7207H351.691C351.7 70.6114 351.903 71.3838 352.29 72.0291C352.677 72.6744 353.212 73.1651 353.895 73.5105C354.586 73.8559 355.38 74.0286 356.274 74.0286C357.243 74.0286 358.073 73.8286 358.746 73.4196C359.419 73.0197 359.936 72.4199 360.296 71.6201C360.646 70.8295 360.831 69.8479 360.84 68.6846V45.4453Z" fill="white"/>
<path d="M391.691 54.5338C391.544 53.1251 390.898 52.0254 389.773 51.2438C388.638 50.4531 387.172 50.0623 385.373 50.0623C384.11 50.0623 383.022 50.2532 382.118 50.6258C381.214 51.0075 380.513 51.5164 380.033 52.1617C379.554 52.807 379.314 53.5432 379.295 54.3703C379.295 55.061 379.461 55.6608 379.784 56.1607C380.107 56.6696 380.54 57.0968 381.103 57.4422C381.656 57.7966 382.274 58.0874 382.948 58.3237C383.63 58.56 384.313 58.76 384.995 58.9236L388.14 59.6961C389.404 59.9869 390.631 60.3778 391.802 60.8776C392.973 61.3684 394.034 61.9955 394.965 62.7498C395.897 63.5042 396.635 64.413 397.179 65.4764C397.723 66.5397 398 67.7848 398 69.2208C398 71.1566 397.502 72.8562 396.496 74.3285C395.491 75.7917 394.043 76.9369 392.143 77.764C390.252 78.582 387.965 79 385.272 79C382.671 79 380.402 78.6002 378.493 77.8004C376.575 77.0097 375.08 75.8463 374.001 74.3194C372.922 72.7926 372.341 70.9294 372.258 68.7391H378.235C378.318 69.8842 378.687 70.8386 379.314 71.6111C379.95 72.3745 380.78 72.938 381.795 73.3197C382.819 73.6923 383.962 73.8832 385.226 73.8832C386.545 73.8832 387.707 73.6832 388.712 73.2924C389.708 72.9016 390.492 72.3564 391.055 71.6475C391.627 70.9476 391.913 70.1206 391.922 69.1754C391.913 68.312 391.654 67.5939 391.156 67.0304C390.649 66.467 389.948 65.9944 389.053 65.6127C388.15 65.231 387.098 64.8856 385.899 64.5857L382.081 63.6223C379.323 62.9225 377.137 61.8592 375.541 60.4323C373.937 59.0054 373.143 57.115 373.143 54.7429C373.143 52.798 373.678 51.0894 374.758 49.6261C375.827 48.1629 377.294 47.0268 379.148 46.2179C381.011 45.4 383.114 45 385.456 45C387.836 45 389.92 45.4 391.719 46.2179C393.517 47.0268 394.929 48.1538 395.952 49.5897C396.976 51.0257 397.511 52.6707 397.539 54.5338H391.691Z" fill="white"/>
</g>
</g>
<defs>
<filter id="filter0_d_18_178" x="0" y="0" width="402" height="88" filterUnits="userSpaceOnUse" color-interpolation-filters="sRGB">
<feFlood flood-opacity="0" result="BackgroundImageFix"/>
<feColorMatrix in="SourceAlpha" type="matrix" values="0 0 0 0 0 0 0 0 0 0 0 0 0 0 0 0 0 0 127 0" result="hardAlpha"/>
<feOffset dy="4"/>
<feGaussianBlur stdDeviation="2"/>
<feComposite in2="hardAlpha" operator="out"/>
<feColorMatrix type="matrix" values="0 0 0 0 0 0 0 0 0 0 0 0 0 0 0 0 0 0 0.25 0"/>
<feBlend mode="normal" in2="BackgroundImageFix" result="effect1_dropShadow_18_178"/>
<feBlend mode="normal" in="SourceGraphic" in2="effect1_dropShadow_18_178" result="shape"/>
</filter>
<clipPath id="clip0_18_178">
<rect width="394" height="80" fill="white" transform="translate(4)"/>
</clipPath>
</defs>
</svg>
