<svg width="317" height="80" viewBox="0 0 317 80" fill="none" xmlns="http://www.w3.org/2000/svg">
<path d="M101.146 62.9936L105.096 53.8217C109.363 57.0064 115.032 58.6624 120.637 58.6624C124.777 58.6624 127.389 57.0701 127.389 54.6497C127.325 47.8981 102.611 53.1847 102.42 36.2421C102.357 27.6433 110 21.0191 120.828 21.0191C127.261 21.0191 133.694 22.6115 138.28 26.2421L134.586 35.6051C130.382 32.93 125.159 31.0191 120.191 31.0191C116.815 31.0191 114.586 32.6115 114.586 34.6497C114.65 41.2739 139.554 37.6433 139.809 53.8217C139.809 62.6115 132.357 68.7898 121.656 68.7898C113.822 68.7898 106.624 66.9427 101.146 62.9936ZM252.675 50.5096L263.567 56.5605C259.49 63.8854 251.72 68.7898 242.739 68.7898C229.554 68.7898 218.853 58.0892 218.853 44.9045C218.853 31.7198 229.554 21.0191 242.739 21.0191C251.656 21.0191 259.49 25.9873 263.567 33.2484L252.675 39.2994C250.701 35.8599 247.006 33.5032 242.739 33.5032C236.433 33.5032 231.338 38.5987 231.338 44.9045C231.338 51.2102 236.433 56.3057 242.739 56.3057C247.006 56.3057 250.701 53.9491 252.675 50.5096ZM145.287 1.21021H158.917V67.8981H145.287V1.21021ZM268.917 1.21021H282.548V40.3822L297.962 21.9745H314.65L295.605 44.1401L316.178 67.8981H298.726L282.548 47.8981V67.8981H268.917V1.21021ZM199.427 50.637V39.3631C197.452 36.051 193.376 33.5032 188.79 33.5032C182.484 33.5032 177.389 38.5987 177.389 44.9045C177.389 51.2102 182.484 56.3057 188.79 56.3057C193.376 56.3057 197.452 53.8854 199.427 50.637ZM199.427 21.9745H213.057V67.8344H199.427V62.4204C197.197 66.1784 191.656 68.7898 185.86 68.7898C173.885 68.7898 164.459 58.0892 164.459 44.8408C164.459 31.5924 173.885 21.0191 185.86 21.0191C191.656 21.0191 197.197 23.6306 199.427 27.3885V21.9745Z" fill="white"/>
<path d="M16.8788 50.5732C16.8788 55.2229 13.1208 58.9808 8.47112 58.9808C3.82144 58.9808 0.0634766 55.2229 0.0634766 50.5732C0.0634766 45.9235 3.82144 42.1655 8.47112 42.1655H16.8788V50.5732ZM21.0826 50.5732C21.0826 45.9235 24.8405 42.1655 29.4902 42.1655C34.1399 42.1655 37.8979 45.9235 37.8979 50.5732V71.5923C37.8979 76.242 34.1399 79.9999 29.4902 79.9999C24.8405 79.9999 21.0826 76.242 21.0826 71.5923V50.5732Z" fill="white"/>
<path d="M29.4904 16.8153C24.8408 16.8153 21.0828 13.0573 21.0828 8.40764C21.0828 3.75796 24.8408 0 29.4904 0C34.1401 0 37.8981 3.75796 37.8981 8.40764V16.8153H29.4904ZM29.4904 21.0828C34.1401 21.0828 37.8981 24.8408 37.8981 29.4904C37.8981 34.1401 34.1401 37.8981 29.4904 37.8981H8.40764C3.75796 37.8981 0 34.1401 0 29.4904C0 24.8408 3.75796 21.0828 8.40764 21.0828H29.4904Z" fill="white"/>
<path d="M63.1851 29.4904C63.1851 24.8408 66.9431 21.0828 71.5928 21.0828C76.2424 21.0828 80.0004 24.8408 80.0004 29.4904C80.0004 34.1401 76.2424 37.8981 71.5928 37.8981H63.1851V29.4904ZM58.9813 29.4904C58.9813 34.1401 55.2233 37.8981 50.5737 37.8981C45.924 37.8981 42.166 34.1401 42.166 29.4904V8.40764C42.166 3.75796 45.924 0 50.5737 0C55.2233 0 58.9813 3.75796 58.9813 8.40764V29.4904Z" fill="white"/>
<path d="M50.5737 63.1846C55.2233 63.1846 58.9813 66.9426 58.9813 71.5923C58.9813 76.242 55.2233 79.9999 50.5737 79.9999C45.924 79.9999 42.166 76.242 42.166 71.5923V63.1846H50.5737ZM50.5737 58.9808C45.924 58.9808 42.166 55.2229 42.166 50.5732C42.166 45.9235 45.924 42.1655 50.5737 42.1655H71.6565C76.3061 42.1655 80.0641 45.9235 80.0641 50.5732C80.0641 55.2229 76.3061 58.9808 71.6565 58.9808H50.5737Z" fill="white"/>
</svg>
