<svg width="411" height="80" viewBox="0 0 411 80" fill="none" xmlns="http://www.w3.org/2000/svg">
<g clip-path="url(#clip0_88_107)">
<path d="M107.099 47.2644C107.522 51.2299 111.127 58.0279 121.586 58.0279C130.702 58.0279 135.085 52.2213 135.085 46.5564C135.085 41.4578 131.621 37.2799 124.767 35.8635L119.819 34.8014C117.911 34.4474 116.639 33.3852 116.639 31.6857C116.639 29.7029 118.618 28.216 121.092 28.216C125.049 28.216 126.533 30.8359 126.816 32.8896L134.66 31.1193C134.237 27.3662 130.915 21.064 121.021 21.064C113.53 21.064 108.018 26.2332 108.018 32.4646C108.018 37.3506 111.056 41.3871 117.77 42.874L122.364 43.9362C125.049 44.5027 126.109 45.7775 126.109 47.3353C126.109 49.1764 124.625 50.8051 121.515 50.8051C117.417 50.8051 115.367 48.2558 115.155 45.4941L107.099 47.2644Z" fill="white"/>
<path d="M165.122 56.9656H174.098C173.956 55.7618 173.744 53.3542 173.744 50.6633V22.126H164.344V42.3782C164.344 46.4146 161.942 49.247 157.772 49.247C153.391 49.247 151.411 46.1313 151.411 42.2366V22.126H142.012V44.1486C142.012 51.7255 146.818 57.8862 155.228 57.8862C158.902 57.8862 162.932 56.47 164.84 53.2126C164.84 54.6288 164.981 56.2574 165.122 56.9656Z" fill="white"/>
<path d="M193.174 70.42V53.5668C194.87 55.9035 198.404 57.8156 203.21 57.8156C213.033 57.8156 219.605 50.026 219.605 39.475C219.605 29.1365 213.74 21.3472 203.563 21.3472C198.334 21.3472 194.447 23.6839 192.892 26.3748V22.1261H183.776V70.42H193.174ZM210.347 39.5459C210.347 45.7775 206.532 49.3888 201.725 49.3888C196.921 49.3888 193.034 45.7066 193.034 39.5459C193.034 33.3853 196.921 29.7738 201.725 29.7738C206.532 29.7738 210.347 33.3853 210.347 39.5459Z" fill="white"/>
<path d="M224.928 47.4768C224.928 52.9294 229.451 57.9571 236.872 57.9571C242.03 57.9571 245.352 55.5494 247.118 52.7877C247.118 54.1332 247.259 56.0451 247.472 56.9657H256.093C255.881 55.7619 255.67 53.2834 255.67 51.4424V34.3057C255.67 27.2953 251.571 21.064 240.547 21.064C231.218 21.064 226.199 27.0829 225.635 32.5355L233.974 34.3057C234.257 31.2608 236.518 28.6408 240.616 28.6408C244.575 28.6408 246.483 30.6943 246.483 33.1728C246.483 34.3766 245.847 35.368 243.868 35.6512L235.317 36.9258C229.522 37.7756 224.928 41.2453 224.928 47.4768ZM238.85 50.9467C235.812 50.9467 234.327 48.9639 234.327 46.9104C234.327 44.2195 236.235 42.874 238.638 42.52L246.483 41.3162V42.874C246.483 49.0348 242.808 50.9467 238.85 50.9467Z" fill="white"/>
<path d="M274.262 56.9657V52.7169C276.098 55.691 279.773 57.8154 284.579 57.8154C294.474 57.8154 300.976 49.9552 300.976 39.4042C300.976 29.0655 295.109 21.2054 284.933 21.2054C279.773 21.2054 275.957 23.4714 274.402 25.9497V5.69751H265.145V56.9657H274.262ZM291.575 39.4749C291.575 45.8481 287.759 49.3887 282.953 49.3887C278.219 49.3887 274.262 45.7773 274.262 39.4749C274.262 33.1018 278.219 29.6321 282.953 29.6321C287.759 29.6321 291.575 33.1018 291.575 39.4749Z" fill="white"/>
<path d="M306.297 47.4768C306.297 52.9294 310.82 57.9571 318.24 57.9571C323.399 57.9571 326.721 55.5494 328.487 52.7877C328.487 54.1332 328.629 56.0451 328.841 56.9657H337.463C337.252 55.7619 337.04 53.2834 337.04 51.4424V34.3057C337.04 27.2953 332.94 21.064 321.915 21.064C312.587 21.064 307.569 27.0829 307.004 32.5355L315.342 34.3057C315.626 31.2608 317.887 28.6408 321.985 28.6408C325.944 28.6408 327.852 30.6943 327.852 33.1728C327.852 34.3766 327.216 35.368 325.237 35.6512L316.686 36.9258C310.891 37.7756 306.297 41.2453 306.297 47.4768ZM320.22 50.9467C317.181 50.9467 315.696 48.9639 315.696 46.9104C315.696 44.2195 317.604 42.874 320.008 42.52L327.852 41.3162V42.874C327.852 49.0348 324.177 50.9467 320.22 50.9467Z" fill="white"/>
<path d="M343.546 47.2644C343.969 51.2299 347.574 58.0279 358.033 58.0279C367.15 58.0279 371.531 52.2213 371.531 46.5564C371.531 41.4578 368.069 37.2799 361.213 35.8635L356.266 34.8014C354.358 34.4474 353.087 33.3852 353.087 31.6857C353.087 29.7029 355.065 28.216 357.538 28.216C361.497 28.216 362.98 30.8359 363.264 32.8896L371.108 31.1193C370.683 27.3662 367.362 21.064 357.468 21.064C349.976 21.064 344.465 26.2332 344.465 32.4646C344.465 37.3506 347.502 41.3871 354.217 42.874L358.811 43.9362C361.497 44.5027 362.557 45.7775 362.557 47.3353C362.557 49.1764 361.072 50.8051 357.963 50.8051C353.863 50.8051 351.815 48.2558 351.602 45.4941L343.546 47.2644Z" fill="white"/>
<path d="M385.806 35.5804C386.018 32.3939 388.704 28.7115 393.58 28.7115C398.951 28.7115 401.213 32.1106 401.355 35.5804H385.806ZM402.274 44.6444C401.142 47.76 398.739 49.9553 394.358 49.9553C389.693 49.9553 385.806 46.6271 385.595 42.0244H410.471C410.471 41.8826 410.612 40.4664 410.612 39.121C410.612 27.9326 404.181 21.064 393.439 21.064C384.535 21.064 376.336 28.2867 376.336 39.4043C376.336 51.159 384.746 58.0279 394.287 58.0279C402.838 58.0279 408.351 53.0002 410.118 46.9811L402.274 44.6444Z" fill="white"/>
<path d="M45.0669 78.0772C43.044 80.6266 38.9426 79.2298 38.8939 75.9746L38.1812 28.363H70.1696C75.9636 28.363 79.195 35.0605 75.5922 39.6018L45.0669 78.0772Z" fill="url(#paint0_linear_88_107)"/>
<path d="M45.0669 78.0772C43.044 80.6266 38.9426 79.2298 38.8939 75.9746L38.1812 28.363H70.1696C75.9636 28.363 79.195 35.0605 75.5922 39.6018L45.0669 78.0772Z" fill="url(#paint1_linear_88_107)" fill-opacity="0.2"/>
<path d="M32.0574 1.46612C34.0802 -1.08354 38.1817 0.313489 38.2305 3.56876L38.5428 51.1802H6.95469C1.16054 51.1802 -2.07096 44.4828 1.53201 39.9415L32.0574 1.46612Z" fill="white"/>
</g>
<defs>
<linearGradient id="paint0_linear_88_107" x1="38.1812" y1="38.9197" x2="66.6182" y2="50.8367" gradientUnits="userSpaceOnUse">
<stop stop-color="white"/>
<stop offset="1" stop-color="white"/>
</linearGradient>
<linearGradient id="paint1_linear_88_107" x1="25.5767" y1="21.6482" x2="38.5585" y2="46.0663" gradientUnits="userSpaceOnUse">
<stop/>
<stop offset="1" stop-opacity="0"/>
</linearGradient>
<clipPath id="clip0_88_107">
<rect width="411" height="80" fill="white"/>
</clipPath>
</defs>
</svg>
