<svg width="885" height="105" viewBox="0 0 885 105" fill="none" xmlns="http://www.w3.org/2000/svg">
<path d="M117.4 78L99.5 24.8C98.3667 21.2667 97.4667 18.5 96.8 16.5C96.1333 14.4333 95.6333 12.6667 95.3 11.2C94.3667 11.2667 93.4333 11.3 92.5 11.3C91.5667 11.3 90.6333 11.3333 89.7 11.4V7H114V10.3C110.133 10.5 107.8 11.3667 107 12.9C106.267 14.4333 106.433 17.2 107.5 21.2C108.633 25.6 109.867 29.5667 111.2 33.1C112.533 36.6333 113.833 40.4333 115.1 44.5C116.033 47.5 116.967 50.2667 117.9 52.8C118.9 55.3333 119.9 58.1667 120.9 61.3H121.1C121.433 60.1667 121.767 58.9667 122.1 57.7C122.5 56.4333 122.9 55.2 123.3 54C123.7 52.8 124.067 51.7 124.4 50.7C124.733 49.6333 125 48.7667 125.2 48.1C127.067 42.1667 128.9 36.4333 130.7 30.9C132.567 25.3 134.2 20.4 135.6 16.2C137 11.9333 137.967 8.8 138.5 6.8H141.7C142.3 9 143.167 11.8 144.3 15.2C145.433 18.6 146.633 22.1667 147.9 25.9C149.167 29.6333 150.333 33.1667 151.4 36.5C152.533 39.8333 153.433 42.5 154.1 44.5C155.033 47.5 156 50.4667 157 53.4C158.067 56.3333 159.033 59.3667 159.9 62.5H160.2C160.8 60.5667 161.433 58.5 162.1 56.3C162.833 54.1 163.567 51.8667 164.3 49.6C166.033 44.6667 167.433 40.5333 168.5 37.2C169.633 33.8667 170.533 31.1 171.2 28.9C171.933 26.7 172.533 24.8 173 23.2C173.533 21.5333 174.067 19.9333 174.6 18.4C175 17.2667 175.433 16.0667 175.9 14.8C176.433 13.4667 177.033 12.2333 177.7 11.1C176.367 11.1667 175.033 11.2333 173.7 11.3C172.367 11.3 171.033 11.3333 169.7 11.4V7H190V10.3C187.733 10.5667 185.933 11.0667 184.6 11.8C183.333 12.5333 182.2 13.9 181.2 15.9C180.2 17.9 179 20.9667 177.6 25.1C174.533 34.1667 171.533 43.1 168.6 51.9C165.733 60.6333 162.733 69.3333 159.6 78H156.6L141.4 34.6C140.8 32.8667 140.2 31.1667 139.6 29.5C139.067 27.8333 138.5 26.1667 137.9 24.5C137.367 26.1667 136.8 27.8333 136.2 29.5C135.667 31.1667 135.133 32.8333 134.6 34.5L120.3 78H117.4ZM213.205 78.6C208.605 78.6 204.439 77.5333 200.705 75.4C197.039 73.2 194.139 70.1333 192.005 66.2C189.872 62.2 188.805 57.5 188.805 52.1C188.805 47.4333 189.839 43.0667 191.905 39C194.039 34.9333 197.005 31.6667 200.805 29.2C204.605 26.6667 209.005 25.4 214.005 25.4C216.805 25.4 219.405 25.8667 221.805 26.8C224.272 27.6667 226.439 29.0333 228.305 30.9C230.172 32.7 231.639 35 232.705 37.8C233.772 40.5333 234.305 43.7667 234.305 47.5L199.105 48.1C199.105 53.1667 199.639 57.6333 200.705 61.5C201.839 65.3 203.639 68.2667 206.105 70.4C208.572 72.4667 211.739 73.5 215.605 73.5C217.672 73.5 219.772 73.1333 221.905 72.4C224.105 71.6667 226.139 70.6667 228.005 69.4C229.872 68.1333 231.372 66.7333 232.505 65.2L234.905 67.2C233.105 70 230.939 72.2333 228.405 73.9C225.872 75.5667 223.272 76.7667 220.605 77.5C217.939 78.2333 215.472 78.6 213.205 78.6ZM199.405 43.9H224.905C224.905 41.5 224.539 39.2 223.805 37C223.139 34.7333 222.005 32.9 220.405 31.5C218.805 30.0333 216.705 29.3 214.105 29.3C210.239 29.3 207.005 30.4667 204.405 32.8C201.872 35.0667 200.205 38.7667 199.405 43.9ZM243.205 74C245.271 74 246.705 73.5 247.505 72.5C248.305 71.4333 248.771 70 248.905 68.2C249.038 66.3333 249.105 64.2 249.105 61.8V39C249.105 37.9333 249.138 36.9333 249.205 36C249.271 35 249.371 33.8333 249.505 32.5C248.305 32.5667 247.105 32.6333 245.905 32.7C244.771 32.7667 243.605 32.8333 242.405 32.9V28.7C245.338 28.7 247.605 28.5667 249.205 28.3C250.805 28.0333 252.005 27.7 252.805 27.3C253.671 26.9 254.338 26.4667 254.805 26H257.705V66.4C257.705 67.7333 257.671 68.9333 257.605 70C257.605 71 257.505 72.0667 257.305 73.2C258.371 73.1333 259.405 73.1 260.405 73.1C261.471 73.0333 262.538 72.9667 263.605 72.9V77H243.205V74ZM252.805 16.1C251.405 16.1 250.171 15.5333 249.105 14.4C248.038 13.2667 247.505 11.8667 247.505 10.2C247.505 8.53333 248.038 7.13333 249.105 6C250.238 4.8 251.505 4.2 252.905 4.2C254.438 4.2 255.705 4.8 256.705 6C257.771 7.13333 258.305 8.53333 258.305 10.2C258.305 11.8667 257.738 13.2667 256.605 14.4C255.538 15.5333 254.271 16.1 252.805 16.1ZM295.43 104.1C289.43 104.1 284.596 103.433 280.93 102.1C277.263 100.767 274.596 99.0667 272.93 97C271.263 94.9333 270.43 92.8 270.43 90.6C270.43 88.5333 270.896 86.7 271.83 85.1C272.83 83.5667 274.03 82.2333 275.43 81.1C276.896 79.9667 278.296 79.1333 279.63 78.6C277.496 77.8667 275.796 76.9 274.53 75.7C273.33 74.4333 272.73 72.7667 272.73 70.7C272.73 68.3667 273.663 66.2 275.53 64.2C277.396 62.1333 279.796 60.8667 282.73 60.4C279.663 58.9333 277.196 56.9 275.33 54.3C273.53 51.7 272.63 48.6667 272.63 45.2C272.63 41.2 273.663 37.7333 275.73 34.8C277.796 31.8 280.43 29.5 283.63 27.9C286.896 26.2333 290.263 25.4 293.73 25.4C295.93 25.4 298.13 25.7333 300.33 26.4C302.53 27 304.563 27.9 306.43 29.1C307.096 27.2333 308.03 25.5667 309.23 24.1C310.496 22.6333 311.93 21.5 313.53 20.7C315.13 19.8333 316.796 19.4 318.53 19.4C320.263 19.4 321.563 19.8667 322.43 20.8C323.363 21.6667 323.83 22.8667 323.83 24.4C323.83 24.8667 323.696 25.4333 323.43 26.1C323.163 26.7667 322.696 27.3333 322.03 27.8C321.43 28.2667 320.596 28.5 319.53 28.5C318.396 28.5 317.463 28.1667 316.73 27.5C315.996 26.8333 315.53 26 315.33 25C313.663 25.2667 312.363 26.0667 311.43 27.4C310.496 28.6667 309.863 30.0667 309.53 31.6C311.13 33.0667 312.396 34.8333 313.33 36.9C314.33 38.9667 314.83 41.1667 314.83 43.5C314.83 47.2333 313.83 50.5667 311.83 53.5C309.896 56.4333 307.33 58.7333 304.13 60.4C300.93 62 297.463 62.8 293.73 62.8C292.463 62.8 291.363 62.7333 290.43 62.6C289.496 62.4 288.363 62.3 287.03 62.3C284.563 62.3 282.563 62.9 281.03 64.1C279.496 65.3 278.963 66.7333 279.43 68.4C279.963 70 281.596 71.0333 284.33 71.5C287.063 71.9 290.73 72.2 295.33 72.4C300.463 72.6 304.863 73.2 308.53 74.2C312.196 75.2 314.996 76.7333 316.93 78.8C318.93 80.9333 319.93 83.8 319.93 87.4C319.93 90.0667 319.196 92.4333 317.73 94.5C316.33 96.6333 314.43 98.4 312.03 99.8C309.696 101.2 307.063 102.267 304.13 103C301.263 103.733 298.363 104.1 295.43 104.1ZM295.33 100.2C301.063 100.2 305.53 99.1333 308.73 97C311.93 94.8667 313.53 92.3667 313.53 89.5C313.53 87.0333 312.696 85.1333 311.03 83.8C309.363 82.5333 307.096 81.6333 304.23 81.1C301.363 80.6333 298.063 80.3667 294.33 80.3C292.53 80.2333 290.763 80.1333 289.03 80C287.296 79.9333 285.63 79.7667 284.03 79.5C282.23 80.7 280.83 82.1667 279.83 83.9C278.83 85.6333 278.33 87.4667 278.33 89.4C278.33 92.6667 279.863 95.2667 282.93 97.2C286.063 99.2 290.196 100.2 295.33 100.2ZM294.03 59.2C296.496 59.2 298.53 58.6 300.13 57.4C301.796 56.2 303.03 54.5667 303.83 52.5C304.696 50.4333 305.13 48.1 305.13 45.5C305.13 42.5667 304.696 39.8333 303.83 37.3C302.963 34.7667 301.663 32.7333 299.93 31.2C298.263 29.6667 296.13 28.9 293.53 28.9C289.93 28.9 287.13 30.2667 285.13 33C283.196 35.6667 282.23 39 282.23 43C282.23 46.2 282.696 49.0333 283.63 51.5C284.563 53.9 285.896 55.8 287.63 57.2C289.43 58.5333 291.563 59.2 294.03 59.2ZM361.145 74C363.211 74 364.645 73.5 365.445 72.5C366.245 71.4333 366.711 70 366.845 68.2C366.978 66.3333 367.045 64.2 367.045 61.8V47.8C367.045 42.0667 366.111 37.7667 364.245 34.9C362.445 32.0333 359.578 30.6333 355.645 30.7C353.178 30.7667 350.745 31.3667 348.345 32.5C346.011 33.6333 344.111 35.1 342.645 36.9V66.4C342.645 67.7333 342.611 68.9333 342.545 70C342.478 71 342.345 72.0667 342.145 73.2C343.211 73.1333 344.245 73.1 345.245 73.1C346.311 73.0333 347.378 72.9667 348.445 72.9V77H328.045V74C330.111 74 331.545 73.5 332.345 72.5C333.145 71.4333 333.611 70 333.745 68.2C333.945 66.3333 334.045 64.2 334.045 61.8V14.5C334.045 13.4333 334.045 12.4333 334.045 11.5C334.111 10.5 334.211 9.33333 334.345 7.99999C333.145 8.06666 331.945 8.13333 330.745 8.2C329.611 8.26666 328.445 8.33333 327.245 8.4V4.2C330.178 4.2 332.445 4.06666 334.045 3.79999C335.711 3.53333 336.945 3.19999 337.745 2.8C338.611 2.4 339.278 1.96666 339.745 1.49999H342.645V32C344.111 30.7333 345.745 29.6333 347.545 28.7C349.411 27.7 351.311 26.9 353.245 26.3C355.245 25.7 357.178 25.4 359.045 25.4C364.845 25.4 369.011 27.2333 371.545 30.9C374.145 34.5 375.478 40.1333 375.545 47.8L375.645 66.4C375.645 67.7333 375.611 68.9333 375.545 70C375.545 71 375.445 72.0667 375.245 73.2C376.311 73.1333 377.345 73.1 378.345 73.1C379.411 73.0333 380.478 72.9667 381.545 72.9V77H361.145V74ZM406.829 78.6C405.296 78.6 403.729 78.3667 402.129 77.9C400.529 77.5 399.029 76.6667 397.629 75.4C396.296 74.1333 395.229 72.3 394.429 69.9C393.629 67.4333 393.229 64.2 393.229 60.2L393.429 31.2L385.729 31.3V27C387.462 26.9333 389.229 26.3 391.029 25.1C392.829 23.8333 394.429 22.1333 395.829 20C397.296 17.8667 398.296 15.5333 398.829 13H402.229V27H419.029V30.9L402.229 31.1L402.029 58.9C402.029 61.9 402.262 64.4667 402.729 66.6C403.262 68.6667 404.096 70.2333 405.229 71.3C406.362 72.3667 407.829 72.9 409.629 72.9C411.496 72.9 413.229 72.3667 414.829 71.3C416.496 70.2333 417.962 68.7667 419.229 66.9L421.929 69.1C420.462 71.3 418.996 73.0333 417.529 74.3C416.129 75.5667 414.762 76.5 413.429 77.1C412.096 77.7667 410.862 78.1667 409.729 78.3C408.596 78.5 407.629 78.6 406.829 78.6ZM447.201 78.6C443.867 78.6 440.901 78.1333 438.301 77.2C435.701 76.3333 433.567 75.3333 431.901 74.2L432.301 77.7H428.101L427.501 60.5H430.601C430.734 63.2333 431.501 65.7 432.901 67.9C434.301 70.0333 436.101 71.7 438.301 72.9C440.501 74.1 442.867 74.7 445.401 74.7C447.134 74.7 448.834 74.4333 450.501 73.9C452.167 73.3 453.567 72.4333 454.701 71.3C455.834 70.1 456.401 68.6 456.401 66.8C456.401 64.9333 455.834 63.4 454.701 62.2C453.634 60.9333 452.201 59.8333 450.401 58.9C448.601 57.9667 446.667 57.1 444.601 56.3C442.601 55.5 440.601 54.6667 438.601 53.8C436.601 52.9333 434.734 51.9 433.001 50.7C431.334 49.5 430.001 48.0333 429.001 46.3C428.001 44.5667 427.501 42.4333 427.501 39.9C427.501 38.5 427.767 36.9667 428.301 35.3C428.834 33.6333 429.734 32.0667 431.001 30.6C432.267 29.0667 434.001 27.8333 436.201 26.9C438.401 25.9 441.201 25.4 444.601 25.4C446.401 25.4 448.401 25.7 450.601 26.3C452.801 26.9 454.934 28.0333 457.001 29.7L456.801 25.9H461.001V43.4H457.801C457.667 41.0667 457.134 38.8333 456.201 36.7C455.267 34.5 453.901 32.7 452.101 31.3C450.301 29.8333 447.967 29.1 445.101 29.1C442.034 29.1 439.634 29.8667 437.901 31.4C436.167 32.9333 435.301 34.7 435.301 36.7C435.301 38.7667 435.934 40.5 437.201 41.9C438.534 43.2333 440.234 44.4 442.301 45.4C444.367 46.4 446.567 47.3667 448.901 48.3C451.434 49.3667 453.901 50.5333 456.301 51.8C458.701 53.0667 460.667 54.6667 462.201 56.6C463.734 58.4667 464.501 60.9 464.501 63.9C464.501 67.2333 463.634 70 461.901 72.2C460.234 74.4 458.067 76 455.401 77C452.801 78.0667 450.067 78.6 447.201 78.6ZM521.959 78.6C519.026 78.6 516.159 78.2333 513.359 77.5C510.559 76.8333 508.026 75.7333 505.759 74.2C503.559 72.6 501.793 70.5667 500.459 68.1C499.126 65.5667 498.459 62.5333 498.459 59C498.459 54.6667 499.859 50.8333 502.659 47.5C505.526 44.1667 509.359 41.4667 514.159 39.4C512.426 37.1333 510.993 35.0333 509.859 33.1C508.726 31.1 507.893 29.1333 507.359 27.2C506.826 25.2 506.559 23.1667 506.559 21.1C506.626 16.3 508.393 12.5 511.859 9.7C515.326 6.83333 519.726 5.4 525.059 5.4C528.459 5.4 531.393 6.03333 533.859 7.3C536.393 8.5 538.326 10.1667 539.659 12.3C541.059 14.3667 541.759 16.7333 541.759 19.4C541.759 21.8667 541.226 24.2333 540.159 26.5C539.093 28.7667 537.359 30.9667 534.959 33.1C532.559 35.1667 529.359 37.2333 525.359 39.3C527.159 41.1667 529.126 43.2333 531.259 45.5C533.459 47.7667 535.659 50 537.859 52.2C540.059 54.3333 542.059 56.2667 543.859 58C544.193 56.8 544.426 55.6667 544.559 54.6C544.759 53.4667 544.859 52.4667 544.859 51.6C544.859 50.0667 544.626 48.5667 544.159 47.1C543.759 45.5667 542.993 44.3 541.859 43.3C540.793 42.2333 539.259 41.6667 537.259 41.6V38.3H554.759V42.4L546.459 42C547.526 42.8667 548.293 44 548.759 45.4C549.226 46.8 549.493 48.4333 549.559 50.3C549.626 51.5667 549.493 53.2 549.159 55.2C548.893 57.1333 548.359 59.1667 547.559 61.3C548.293 61.9667 549.059 62.7 549.859 63.5C550.726 64.2333 551.626 65 552.559 65.8C555.559 68.4667 558.126 70.4667 560.259 71.8C562.459 73.0667 564.093 73.7 565.159 73.7V77H555.859C555.259 77 553.893 76.4 551.759 75.2C549.693 73.9333 546.926 71.7667 543.459 68.7C541.326 71.4333 538.493 73.7667 534.959 75.7C531.493 77.6333 527.159 78.6 521.959 78.6ZM523.159 73.6C527.359 73.7333 530.826 73.0667 533.559 71.6C536.359 70.0667 538.593 68.1667 540.259 65.9C539.793 65.4333 539.326 65 538.859 64.6C538.393 64.1333 537.893 63.6667 537.359 63.2C532.893 58.8 528.926 54.9 525.459 51.5C522.059 48.1 519.159 45.0333 516.759 42.3C514.626 43.5667 512.959 45.1333 511.759 47C510.559 48.8667 509.693 50.7333 509.159 52.6C508.693 54.4667 508.459 56.1 508.459 57.5C508.459 61.1667 509.159 64.1667 510.559 66.5C512.026 68.8333 513.859 70.5667 516.059 71.7C518.326 72.8333 520.693 73.4667 523.159 73.6ZM523.159 36.9C526.893 34.4333 529.659 31.7 531.459 28.7C533.259 25.6333 534.159 22.6333 534.159 19.7C534.159 16.5 533.326 13.8667 531.659 11.8C529.993 9.66667 527.626 8.6 524.559 8.6C521.826 8.6 519.526 9.63333 517.659 11.7C515.859 13.7 514.959 16.5667 514.959 20.3C514.959 23.1667 515.726 26 517.259 28.8C518.859 31.6 520.826 34.3 523.159 36.9ZM596.16 77V73.7C598.693 73.6333 600.427 73.0667 601.36 72C602.293 70.8667 602.793 69.3667 602.86 67.5C602.993 65.5667 603.06 63.3667 603.06 60.9V18.9C603.06 17.1 603.093 15.5667 603.16 14.3C603.227 12.9667 603.293 11.8667 603.36 11C602.16 11.0667 600.96 11.1333 599.76 11.2C598.56 11.2667 597.36 11.3333 596.16 11.4V7C599.827 6.93333 603.493 6.9 607.16 6.9C610.893 6.83333 614.76 6.8 618.76 6.8C626.493 6.8 632.527 8.16666 636.86 10.9C641.26 13.6333 643.393 17.9667 643.26 23.9C643.26 26.0333 642.627 28.1667 641.36 30.3C640.16 32.4333 638.327 34.3333 635.86 36C633.46 37.6 630.427 38.7333 626.76 39.4V39.6C634.093 39.6 639.627 41.3 643.36 44.7C647.093 48.0333 648.96 52.2667 648.96 57.4C648.96 61.4667 647.927 64.9667 645.86 67.9C643.793 70.8333 640.993 73.1 637.46 74.7C633.927 76.2333 629.893 77 625.36 77H596.16ZM611.46 73C612.527 73.0667 613.793 73.1333 615.26 73.2C616.793 73.2 618.193 73.2 619.46 73.2C620.793 73.2 621.66 73.2 622.06 73.2C627.193 73.2 631.327 71.9333 634.46 69.4C637.66 66.8 639.26 63 639.26 58C639.26 53.9333 638.46 50.7667 636.86 48.5C635.26 46.2333 633.16 44.6333 630.56 43.7C627.96 42.7667 625.127 42.3 622.06 42.3C620.06 42.3 618.227 42.3333 616.56 42.4C614.96 42.4 613.36 42.4667 611.76 42.6V65.2C611.76 67 611.727 68.5333 611.66 69.8C611.66 71.0667 611.593 72.1333 611.46 73ZM611.76 38.7L619.06 38.5C622.86 38.4333 625.86 37.6667 628.06 36.2C630.26 34.6667 631.827 32.7667 632.76 30.5C633.76 28.2333 634.227 25.8667 634.16 23.4C634.093 19.8 633.26 17.0667 631.66 15.2C630.127 13.3333 628.227 12.0667 625.96 11.4C623.693 10.7333 621.46 10.4 619.26 10.4C617.06 10.4 615.427 10.7 614.36 11.3C613.293 11.9 612.593 12.9 612.26 14.3C611.927 15.7 611.76 17.6333 611.76 20.1V38.7ZM656.486 74C658.553 74 659.986 73.5 660.786 72.5C661.586 71.4333 662.053 70 662.186 68.2C662.319 66.3333 662.386 64.2 662.386 61.8V39C662.386 37.9333 662.419 36.9333 662.486 36C662.553 35 662.653 33.8333 662.786 32.5C661.586 32.5667 660.386 32.6333 659.186 32.7C658.053 32.7667 656.886 32.8333 655.686 32.9V28.7C658.619 28.7 660.886 28.5667 662.486 28.3C664.086 28.0333 665.286 27.7 666.086 27.3C666.953 26.9 667.619 26.4667 668.086 26H670.986V66.4C670.986 67.7333 670.953 68.9333 670.886 70C670.886 71 670.786 72.0667 670.586 73.2C671.653 73.1333 672.686 73.1 673.686 73.1C674.753 73.0333 675.819 72.9667 676.886 72.9V77H656.486V74ZM666.086 16.1C664.686 16.1 663.453 15.5333 662.386 14.4C661.319 13.2667 660.786 11.8667 660.786 10.2C660.786 8.53333 661.319 7.13333 662.386 6C663.519 4.8 664.786 4.2 666.186 4.2C667.719 4.2 668.986 4.8 669.986 6C671.053 7.13333 671.586 8.53333 671.586 10.2C671.586 11.8667 671.019 13.2667 669.886 14.4C668.819 15.5333 667.553 16.1 666.086 16.1ZM715.011 77C714.811 75.8667 714.678 74.8667 714.611 74C714.544 73.1333 714.444 72.2333 714.311 71.3C712.044 73.5667 709.578 75.3667 706.911 76.7C704.311 77.9667 701.544 78.6 698.611 78.6C693.544 78.6 689.778 77.4667 687.311 75.2C684.844 72.8667 683.611 70.0333 683.611 66.7C683.611 63.6333 684.544 61 686.411 58.8C688.344 56.5333 690.811 54.7 693.811 53.3C696.878 51.8333 700.178 50.7667 703.711 50.1C707.311 49.3667 710.778 49.0333 714.111 49.1V42.9C714.111 40.5667 713.911 38.3667 713.511 36.3C713.111 34.2333 712.244 32.5333 710.911 31.2C709.578 29.8667 707.444 29.1667 704.511 29.1C702.578 29.0333 700.578 29.4 698.511 30.2C696.511 31 695.044 32.3667 694.111 34.3C694.644 34.8333 694.978 35.4667 695.111 36.2C695.311 36.8667 695.411 37.5 695.411 38.1C695.411 38.9 695.078 39.8333 694.411 40.9C693.744 41.9 692.578 42.3667 690.911 42.3C689.511 42.3 688.444 41.8333 687.711 40.9C686.978 39.9 686.611 38.7333 686.611 37.4C686.611 35.1333 687.444 33.1 689.111 31.3C690.844 29.5 693.211 28.0667 696.211 27C699.211 25.9333 702.611 25.4 706.411 25.4C712.011 25.4 716.144 26.9 718.811 29.9C721.478 32.8333 722.778 37.5 722.711 43.9C722.711 46.3667 722.711 48.8667 722.711 51.4C722.711 53.8667 722.678 56.3667 722.611 58.9C722.611 61.3667 722.611 63.8667 722.611 66.4C722.611 67.4667 722.578 68.5333 722.511 69.6C722.444 70.6667 722.344 71.8667 722.211 73.2C723.411 73.1333 724.578 73.0667 725.711 73C726.911 72.9333 728.111 72.8667 729.311 72.8V77H715.011ZM714.111 52.5C711.844 52.5667 709.444 52.8667 706.911 53.4C704.444 53.8667 702.144 54.6 700.011 55.6C697.944 56.6 696.244 57.9333 694.911 59.6C693.644 61.2 693.044 63.1667 693.111 65.5C693.244 67.9667 694.044 69.8333 695.511 71.1C697.044 72.3 698.844 72.9 700.911 72.9C703.644 72.9 706.011 72.4 708.011 71.4C710.078 70.3333 712.111 68.8667 714.111 67C714.044 66.2667 714.011 65.4667 714.011 64.6C714.011 63.7333 714.011 62.8333 714.011 61.9C714.011 61.5667 714.011 60.5 714.011 58.7C714.078 56.9 714.111 54.8333 714.111 52.5ZM756.673 78.6C753.34 78.6 750.373 78.1333 747.773 77.2C745.173 76.3333 743.04 75.3333 741.373 74.2L741.773 77.7H737.573L736.973 60.5H740.073C740.207 63.2333 740.973 65.7 742.373 67.9C743.773 70.0333 745.573 71.7 747.773 72.9C749.973 74.1 752.34 74.7 754.873 74.7C756.607 74.7 758.307 74.4333 759.973 73.9C761.64 73.3 763.04 72.4333 764.173 71.3C765.307 70.1 765.873 68.6 765.873 66.8C765.873 64.9333 765.307 63.4 764.173 62.2C763.107 60.9333 761.673 59.8333 759.873 58.9C758.073 57.9667 756.14 57.1 754.073 56.3C752.073 55.5 750.073 54.6667 748.073 53.8C746.073 52.9333 744.207 51.9 742.473 50.7C740.807 49.5 739.473 48.0333 738.473 46.3C737.473 44.5667 736.973 42.4333 736.973 39.9C736.973 38.5 737.24 36.9667 737.773 35.3C738.307 33.6333 739.207 32.0667 740.473 30.6C741.74 29.0667 743.473 27.8333 745.673 26.9C747.873 25.9 750.673 25.4 754.073 25.4C755.873 25.4 757.873 25.7 760.073 26.3C762.273 26.9 764.407 28.0333 766.473 29.7L766.273 25.9H770.473V43.4H767.273C767.14 41.0667 766.607 38.8333 765.673 36.7C764.74 34.5 763.373 32.7 761.573 31.3C759.773 29.8333 757.44 29.1 754.573 29.1C751.507 29.1 749.107 29.8667 747.373 31.4C745.64 32.9333 744.773 34.7 744.773 36.7C744.773 38.7667 745.407 40.5 746.673 41.9C748.007 43.2333 749.707 44.4 751.773 45.4C753.84 46.4 756.04 47.3667 758.373 48.3C760.907 49.3667 763.373 50.5333 765.773 51.8C768.173 53.0667 770.14 54.6667 771.673 56.6C773.207 58.4667 773.973 60.9 773.973 63.9C773.973 67.2333 773.107 70 771.373 72.2C769.707 74.4 767.54 76 764.873 77C762.273 78.0667 759.54 78.6 756.673 78.6ZM806.663 78.6C802.063 78.6 797.896 77.5333 794.163 75.4C790.496 73.2 787.596 70.1333 785.463 66.2C783.329 62.2 782.263 57.5 782.263 52.1C782.263 47.4333 783.296 43.0667 785.363 39C787.496 34.9333 790.463 31.6667 794.263 29.2C798.063 26.6667 802.463 25.4 807.462 25.4C810.263 25.4 812.863 25.8667 815.263 26.8C817.729 27.6667 819.896 29.0333 821.763 30.9C823.629 32.7 825.096 35 826.163 37.8C827.229 40.5333 827.763 43.7667 827.763 47.5L792.563 48.1C792.563 53.1667 793.096 57.6333 794.163 61.5C795.296 65.3 797.096 68.2667 799.563 70.4C802.029 72.4667 805.196 73.5 809.063 73.5C811.129 73.5 813.229 73.1333 815.363 72.4C817.563 71.6667 819.596 70.6667 821.463 69.4C823.329 68.1333 824.829 66.7333 825.963 65.2L828.363 67.2C826.563 70 824.396 72.2333 821.863 73.9C819.329 75.5667 816.729 76.7667 814.063 77.5C811.396 78.2333 808.929 78.6 806.663 78.6ZM792.863 43.9H818.363C818.363 41.5 817.996 39.2 817.263 37C816.596 34.7333 815.463 32.9 813.863 31.5C812.263 30.0333 810.163 29.3 807.563 29.3C803.696 29.3 800.463 30.4667 797.863 32.8C795.329 35.0667 793.663 38.7667 792.863 43.9ZM857.162 78.6C853.828 78.6 850.862 78.1333 848.262 77.2C845.662 76.3333 843.528 75.3333 841.862 74.2L842.262 77.7H838.062L837.462 60.5H840.562C840.695 63.2333 841.462 65.7 842.862 67.9C844.262 70.0333 846.062 71.7 848.262 72.9C850.462 74.1 852.828 74.7 855.362 74.7C857.095 74.7 858.795 74.4333 860.462 73.9C862.128 73.3 863.528 72.4333 864.662 71.3C865.795 70.1 866.362 68.6 866.362 66.8C866.362 64.9333 865.795 63.4 864.662 62.2C863.595 60.9333 862.162 59.8333 860.362 58.9C858.562 57.9667 856.628 57.1 854.562 56.3C852.562 55.5 850.562 54.6667 848.562 53.8C846.562 52.9333 844.695 51.9 842.962 50.7C841.295 49.5 839.962 48.0333 838.962 46.3C837.962 44.5667 837.462 42.4333 837.462 39.9C837.462 38.5 837.728 36.9667 838.262 35.3C838.795 33.6333 839.695 32.0667 840.962 30.6C842.228 29.0667 843.962 27.8333 846.162 26.9C848.362 25.9 851.162 25.4 854.562 25.4C856.362 25.4 858.362 25.7 860.562 26.3C862.762 26.9 864.895 28.0333 866.962 29.7L866.762 25.9H870.962V43.4H867.762C867.628 41.0667 867.095 38.8333 866.162 36.7C865.228 34.5 863.862 32.7 862.062 31.3C860.262 29.8333 857.928 29.1 855.062 29.1C851.995 29.1 849.595 29.8667 847.862 31.4C846.128 32.9333 845.262 34.7 845.262 36.7C845.262 38.7667 845.895 40.5 847.162 41.9C848.495 43.2333 850.195 44.4 852.262 45.4C854.328 46.4 856.528 47.3667 858.862 48.3C861.395 49.3667 863.862 50.5333 866.262 51.8C868.662 53.0667 870.628 54.6667 872.162 56.6C873.695 58.4667 874.462 60.9 874.462 63.9C874.462 67.2333 873.595 70 871.862 72.2C870.195 74.4 868.028 76 865.362 77C862.762 78.0667 860.028 78.6 857.162 78.6Z" fill="white"/>
<g clip-path="url(#clip0_136_76)">
<path d="M8.26687 0C6.89658 0 5.58242 0.544344 4.61348 1.51328C3.64455 2.48222 3.1002 3.79638 3.1002 5.16667C3.1002 6.53695 3.64455 7.85111 4.61348 8.82005C5.58242 9.78899 6.89658 10.3333 8.26687 10.3333C9.63715 10.3333 10.9513 9.78899 11.9203 8.82005C12.8892 7.85111 13.4335 6.53695 13.4335 5.16667C13.4335 3.79638 12.8892 2.48222 11.9203 1.51328C10.9513 0.544344 9.63715 0 8.26687 0ZM71.7335 0C70.3628 0 69.0482 0.544519 68.079 1.51377C67.1097 2.48302 66.5652 3.79761 66.5652 5.16833C66.5652 6.53906 67.1097 7.85365 68.079 8.8229C69.0482 9.79215 70.3628 10.3367 71.7335 10.3367C73.1043 10.3367 74.4188 9.79215 75.3881 8.8229C76.3573 7.85365 76.9019 6.53906 76.9019 5.16833C76.9019 3.79761 76.3573 2.48302 75.3881 1.51377C74.4188 0.544519 73.1043 0 71.7335 0ZM40.0002 7.65C38.6299 7.65 37.3158 8.19434 36.3468 9.16328C35.3779 10.1322 34.8335 11.4464 34.8335 12.8167C34.8335 14.187 35.3779 15.5011 36.3468 16.4701C37.3158 17.439 38.6299 17.9833 40.0002 17.9833C41.3705 17.9833 42.6846 17.439 43.6536 16.4701C44.6225 15.5011 45.1669 14.187 45.1669 12.8167C45.1669 11.4464 44.6225 10.1322 43.6536 9.16328C42.6846 8.19434 41.3705 7.65 40.0002 7.65ZM8.26687 17.5733C6.07441 17.5733 3.97175 18.4443 2.42145 19.9946C0.871152 21.5449 0.000201991 23.6475 0.000201991 25.84C0.000201991 28.0325 0.871152 30.1351 2.42145 31.6854C3.97175 33.2357 6.07441 34.1067 8.26687 34.1067C10.4593 34.1067 12.562 33.2357 14.1123 31.6854C15.6626 30.1351 16.5335 28.0325 16.5335 25.84C16.5335 23.6475 15.6626 21.5449 14.1123 19.9946C12.562 18.4443 10.4593 17.5733 8.26687 17.5733ZM71.7335 17.5733C69.5411 17.5733 67.4384 18.4443 65.8881 19.9946C64.3378 21.5449 63.4669 23.6475 63.4669 25.84C63.4669 28.0325 64.3378 30.1351 65.8881 31.6854C67.4384 33.2357 69.5411 34.1067 71.7335 34.1067C73.926 34.1067 76.0286 33.2357 77.5789 31.6854C79.1292 30.1351 80.0002 28.0325 80.0002 25.84C80.0002 23.6475 79.1292 21.5449 77.5789 19.9946C76.0286 18.4443 73.926 17.5733 71.7335 17.5733ZM40.0002 28.32C38.6299 28.32 37.3158 28.8643 36.3468 29.8333C35.3779 30.8022 34.8335 32.1164 34.8335 33.4867C34.8335 34.8569 35.3779 36.1711 36.3468 37.1401C37.3158 38.109 38.6299 38.6533 40.0002 38.6533C41.3705 38.6533 42.6846 38.109 43.6536 37.1401C44.6225 36.1711 45.1669 34.8569 45.1669 33.4867C45.1669 32.1164 44.6225 30.8022 43.6536 29.8333C42.6846 28.8643 41.3705 28.32 40.0002 28.32ZM8.26687 41.3433C6.89658 41.3433 5.58242 41.8877 4.61348 42.8566C3.64455 43.8256 3.1002 45.1397 3.1002 46.51C3.1002 47.8803 3.64455 49.1944 4.61348 50.1634C5.58242 51.1323 6.89658 51.6767 8.26687 51.6767C9.63715 51.6767 10.9513 51.1323 11.9203 50.1634C12.8892 49.1944 13.4335 47.8803 13.4335 46.51C13.4335 45.1397 12.8892 43.8256 11.9203 42.8566C10.9513 41.8877 9.63715 41.3433 8.26687 41.3433ZM71.7335 41.3433C70.3624 41.3433 69.0474 41.888 68.0778 42.8576C67.1082 43.8272 66.5635 45.1422 66.5635 46.5133C66.5635 47.8845 67.1082 49.1995 68.0778 50.1691C69.0474 51.1386 70.3624 51.6833 71.7335 51.6833C73.1047 51.6833 74.4197 51.1386 75.3893 50.1691C76.3588 49.1995 76.9035 47.8845 76.9035 46.5133C76.9035 45.1422 76.3588 43.8272 75.3893 42.8576C74.4197 41.888 73.1047 41.3433 71.7335 41.3433ZM40.0002 45.89C37.8069 45.89 35.7034 46.7613 34.1524 48.3122C32.6015 49.8632 31.7302 51.9667 31.7302 54.16C31.7302 56.3533 32.6015 58.4568 34.1524 60.0078C35.7034 61.5587 37.8069 62.43 40.0002 62.43C42.1935 62.43 44.297 61.5587 45.848 60.0078C47.3989 58.4568 48.2702 56.3533 48.2702 54.16C48.2702 51.9667 47.3989 49.8632 45.848 48.3122C44.297 46.7613 42.1935 45.89 40.0002 45.89ZM8.26687 58.9133C6.07353 58.9138 3.9702 59.7855 2.41958 61.3367C0.86897 62.888 -0.0019067 64.9917 -0.00146468 67.185C-0.00102265 69.3783 0.870702 71.4817 2.42194 73.0323C3.97318 74.5829 6.07686 75.4538 8.2702 75.4533C10.4635 75.4533 12.567 74.582 14.118 73.0311C15.6689 71.4802 16.5402 69.3767 16.5402 67.1833C16.5402 64.99 15.6689 62.8865 14.118 61.3356C12.567 59.7846 10.4602 58.9133 8.26687 58.9133ZM71.7335 62.0133C70.3624 62.0133 69.0474 62.558 68.0778 63.5276C67.1082 64.4972 66.5635 65.8122 66.5635 67.1833C66.5635 68.5545 67.1082 69.8695 68.0778 70.8391C69.0474 71.8086 70.3624 72.3533 71.7335 72.3533C73.1043 72.3533 74.4188 71.8088 75.3881 70.8396C76.3573 69.8703 76.9019 68.5557 76.9019 67.185C76.9019 65.8143 76.3573 64.4997 75.3881 63.5304C74.4188 62.5612 73.1043 62.0133 71.7335 62.0133ZM40.0002 69.6667C38.6299 69.6667 37.3158 70.211 36.3468 71.1799C35.3779 72.1489 34.8335 73.463 34.8335 74.8333C34.8335 76.2036 35.3779 77.5178 36.3468 78.4867C37.3158 79.4557 38.6299 80 40.0002 80C41.3705 80 42.6846 79.4557 43.6536 78.4867C44.6225 77.5178 45.1669 76.2036 45.1669 74.8333C45.1669 73.463 44.6225 72.1489 43.6536 71.1799C42.6846 70.211 41.3705 69.6667 40.0002 69.6667Z" fill="white"/>
</g>
<defs>
<clipPath id="clip0_136_76">
<rect width="80" height="80" fill="white"/>
</clipPath>
</defs>
</svg>
